<svg width="20" height="20" viewBox="0 0 20 20" fill="none" xmlns="http://www.w3.org/2000/svg">
<g clip-path="url(#clip0_931_2173)">
<path fill-rule="evenodd" clip-rule="evenodd" d="M4.87291 2.95783C4.95781 2.59104 5.16439 2.2638 5.45901 2.0294C5.75362 1.79501 6.11892 1.66727 6.49541 1.66699H13.5054C14.2804 1.66699 14.9537 2.20199 15.1279 2.95783L15.9804 6.65033C16.8037 10.2203 14.3462 13.6403 10.8321 14.112L10.8337 14.167V16.667H13.3337C13.5548 16.667 13.7667 16.7548 13.923 16.9111C14.0793 17.0673 14.1671 17.2793 14.1671 17.5003C14.1671 17.7213 14.0793 17.9333 13.923 18.0896C13.7667 18.2459 13.5548 18.3337 13.3337 18.3337H6.66708C6.44606 18.3337 6.2341 18.2459 6.07782 18.0896C5.92154 17.9333 5.83374 17.7213 5.83374 17.5003C5.83374 17.2793 5.92154 17.0673 6.07782 16.9111C6.2341 16.7548 6.44606 16.667 6.66708 16.667H9.16708V14.167L9.16874 14.112C5.65541 13.6403 3.19708 10.2203 4.02124 6.65033L4.87291 2.95783Z" fill="#E94057"/>
</g>
<defs>
<clipPath id="clip0_931_2173">
<rect width="20" height="20" fill="white"/>
</clipPath>
</defs>
</svg>
