<svg width="25" height="25" viewBox="0 0 25 25" fill="none" xmlns="http://www.w3.org/2000/svg">
<g clip-path="url(#clip0_999_3007)">
<path fill-rule="evenodd" clip-rule="evenodd" d="M11.1159 2.96105C11.4973 2.62191 11.9899 2.43457 12.5003 2.43457C13.0106 2.43457 13.5033 2.62191 13.8847 2.96105L17.9826 6.60376L18.243 5.03709C18.2654 4.90215 18.3142 4.77294 18.3866 4.65685C18.459 4.54076 18.5535 4.44006 18.6648 4.3605C18.776 4.28095 18.9019 4.22409 19.0352 4.19317C19.1684 4.16225 19.3065 4.15789 19.4414 4.18032C19.5764 4.20276 19.7056 4.25155 19.8217 4.32392C19.9378 4.39629 20.0385 4.49081 20.118 4.6021C20.1976 4.71338 20.2544 4.83925 20.2853 4.97251C20.3163 5.10577 20.3206 5.24381 20.2982 5.37876L19.8232 8.23918L22.568 10.6798C22.764 10.866 22.8799 11.121 22.8913 11.3911C22.9027 11.6611 22.8087 11.925 22.6291 12.1271C22.4495 12.3291 22.1985 12.4534 21.9289 12.4737C21.6594 12.4941 21.3925 12.4088 21.1847 12.2361L20.7013 11.8069L19.8815 19.9986C19.8301 20.5128 19.5894 20.9896 19.2061 21.3363C18.8228 21.683 18.3244 21.8748 17.8076 21.8746H7.19299C6.67635 21.8746 6.17816 21.6826 5.79511 21.3359C5.41206 20.9893 5.17148 20.5126 5.12007 19.9986L4.30132 11.8069L3.81695 12.2361C3.60909 12.4088 3.34221 12.4941 3.07267 12.4737C2.80314 12.4534 2.55207 12.3291 2.37249 12.1271C2.19291 11.925 2.0989 11.6611 2.1103 11.3911C2.12171 11.121 2.23764 10.866 2.43361 10.6798L11.1159 2.96105ZM6.20549 10.1142C6.22493 10.1781 6.23813 10.2444 6.24507 10.3131L7.19299 19.7923H17.8076L18.7555 10.3131C18.7624 10.2437 18.7756 10.1777 18.7951 10.1152L12.5003 4.5173L6.20549 10.1142Z" fill="#D9D9D9"/>
</g>
<defs>
<clipPath id="clip0_999_3007">
<rect width="25" height="25" fill="white"/>
</clipPath>
</defs>
</svg>
