<svg width="25" height="25" viewBox="0 0 25 25" fill="none" xmlns="http://www.w3.org/2000/svg">
<path d="M12.5001 7.81261C11.573 7.81261 10.6667 8.08752 9.89587 8.60259C9.12501 9.11766 8.52421 9.84975 8.16942 10.7063C7.81463 11.5628 7.72181 12.5053 7.90268 13.4146C8.08354 14.3239 8.52998 15.1591 9.18554 15.8147C9.8411 16.4702 10.6763 16.9167 11.5856 17.0975C12.4949 17.2784 13.4374 17.1856 14.2939 16.8308C15.1505 16.476 15.8826 15.8752 16.3976 15.1043C16.9127 14.3335 17.1876 13.4272 17.1876 12.5001C17.1863 11.2573 16.692 10.0658 15.8132 9.18697C14.9344 8.30817 13.7429 7.8139 12.5001 7.81261ZM12.5001 15.6251C11.882 15.6251 11.2779 15.4418 10.7639 15.0984C10.25 14.7551 9.84951 14.267 9.61298 13.696C9.37646 13.125 9.31457 12.4966 9.43515 11.8904C9.55573 11.2843 9.85336 10.7274 10.2904 10.2904C10.7274 9.85336 11.2843 9.55573 11.8904 9.43515C12.4966 9.31457 13.125 9.37646 13.696 9.61298C14.267 9.84951 14.7551 10.25 15.0984 10.7639C15.4418 11.2779 15.6251 11.882 15.6251 12.5001C15.6251 13.3289 15.2959 14.1238 14.7098 14.7098C14.1238 15.2959 13.3289 15.6251 12.5001 15.6251ZM21.0939 12.711C21.0978 12.5704 21.0978 12.4298 21.0939 12.2892L22.5509 10.4689C22.6273 10.3733 22.6802 10.2611 22.7053 10.1413C22.7304 10.0216 22.727 9.89761 22.6954 9.7794C22.4566 8.88155 22.0993 8.01948 21.6329 7.21593C21.5719 7.11077 21.4871 7.02131 21.3854 6.95469C21.2836 6.88806 21.1678 6.8461 21.047 6.83214L18.7306 6.57432C18.6342 6.47276 18.5366 6.37511 18.4376 6.28136L18.1642 3.95909C18.1501 3.8382 18.108 3.72227 18.0412 3.62055C17.9744 3.51882 17.8847 3.4341 17.7794 3.37315C16.9755 2.90766 16.1135 2.55071 15.2159 2.31163C15.0976 2.28018 14.9736 2.27696 14.8539 2.30224C14.7341 2.32751 14.622 2.38057 14.5265 2.45714L12.711 3.90636H12.2892L10.4689 2.45225C10.3733 2.37586 10.2611 2.32297 10.1413 2.29787C10.0216 2.27277 9.89761 2.27614 9.7794 2.30772C8.8817 2.54701 8.01969 2.90429 7.21593 3.37022C7.11077 3.43128 7.02131 3.51605 6.95469 3.61777C6.88806 3.71949 6.8461 3.83536 6.83214 3.95616L6.57432 6.27647C6.47276 6.37348 6.37511 6.47113 6.28136 6.56944L3.95909 6.83604C3.8382 6.85011 3.72227 6.89222 3.62055 6.95902C3.51882 7.02582 3.4341 7.11547 3.37315 7.22081C2.90766 8.02467 2.55071 8.88667 2.31163 9.78429C2.28018 9.90257 2.27696 10.0266 2.30224 10.1463C2.32751 10.2661 2.38057 10.3782 2.45714 10.4737L3.90636 12.2892V12.711L2.45225 14.5314C2.37586 14.6269 2.32297 14.7391 2.29787 14.8589C2.27277 14.9786 2.27614 15.1026 2.30772 15.2208C2.54657 16.1187 2.90387 16.9807 3.37022 17.7843C3.43128 17.8894 3.51605 17.9789 3.61777 18.0455C3.71949 18.1122 3.83536 18.1541 3.95616 18.1681L6.27257 18.4259C6.36957 18.5274 6.46723 18.6251 6.56554 18.7189L6.83604 21.0411C6.85011 21.162 6.89222 21.2779 6.95902 21.3797C7.02582 21.4814 7.11547 21.5661 7.22081 21.6271C8.02467 22.0926 8.88667 22.4495 9.78429 22.6886C9.90257 22.72 10.0266 22.7232 10.1463 22.698C10.2661 22.6727 10.3782 22.6196 10.4737 22.5431L12.2892 21.0939C12.4298 21.0978 12.5704 21.0978 12.711 21.0939L14.5314 22.5509C14.6269 22.6273 14.7391 22.6802 14.8589 22.7053C14.9786 22.7304 15.1026 22.727 15.2208 22.6954C16.1187 22.4566 16.9807 22.0993 17.7843 21.6329C17.8894 21.5719 17.9789 21.4871 18.0455 21.3854C18.1122 21.2836 18.1541 21.1678 18.1681 21.047L18.4259 18.7306C18.5274 18.6342 18.6251 18.5366 18.7189 18.4376L21.0411 18.1642C21.162 18.1501 21.2779 18.108 21.3797 18.0412C21.4814 17.9744 21.5661 17.8847 21.6271 17.7794C22.0926 16.9755 22.4495 16.1135 22.6886 15.2159C22.72 15.0976 22.7232 14.9736 22.698 14.8539C22.6727 14.7341 22.6196 14.622 22.5431 14.5265L21.0939 12.711ZM19.5216 12.0763C19.5382 12.3586 19.5382 12.6416 19.5216 12.9239C19.51 13.1172 19.5705 13.3079 19.6915 13.4591L21.0773 15.1905C20.9182 15.6959 20.7146 16.1861 20.4689 16.6554L18.2618 16.9054C18.0696 16.9267 17.8922 17.0186 17.7638 17.1632C17.5758 17.3746 17.3756 17.5748 17.1642 17.7628C17.0196 17.8912 16.9277 18.0686 16.9064 18.2608L16.6612 20.4659C16.192 20.7118 15.7018 20.9154 15.1964 21.0743L13.464 19.6886C13.3253 19.5778 13.1531 19.5175 12.9757 19.5177H12.9288C12.6465 19.5343 12.3635 19.5343 12.0812 19.5177C11.8879 19.5061 11.6972 19.5666 11.546 19.6876L9.80968 21.0743C9.30434 20.9153 8.81413 20.7117 8.34483 20.4659L8.09483 18.2618C8.0735 18.0696 7.98164 17.8922 7.83702 17.7638C7.62559 17.5758 7.42537 17.3756 7.23741 17.1642C7.10902 17.0196 6.93157 16.9277 6.73936 16.9064L4.53429 16.6603C4.28837 16.191 4.08476 15.7008 3.92589 15.1954L5.31163 13.463C5.43263 13.3118 5.49319 13.1211 5.48155 12.9278C5.46497 12.6455 5.46497 12.3625 5.48155 12.0802C5.49319 11.8869 5.43263 11.6962 5.31163 11.545L3.92589 9.80968C4.08491 9.30434 4.28851 8.81413 4.53429 8.34483L6.73839 8.09483C6.93059 8.0735 7.10805 7.98164 7.23643 7.83702C7.42439 7.62559 7.62461 7.42537 7.83604 7.23741C7.98124 7.10894 8.07347 6.93108 8.09483 6.73839L8.33995 4.53429C8.80919 4.28837 9.29941 4.08476 9.80479 3.92589L11.5372 5.31163C11.6884 5.43263 11.8791 5.49319 12.0724 5.48155C12.3547 5.46497 12.6377 5.46497 12.92 5.48155C13.1133 5.49319 13.304 5.43263 13.4552 5.31163L15.1905 3.92589C15.6959 4.08491 16.1861 4.28851 16.6554 4.53429L16.9054 6.73839C16.9267 6.93059 17.0186 7.10805 17.1632 7.23643C17.3746 7.42439 17.5748 7.62461 17.7628 7.83604C17.8912 7.98066 18.0686 8.07252 18.2608 8.09386L20.4659 8.33897C20.7118 8.80821 20.9154 9.29843 21.0743 9.80382L19.6886 11.5362C19.5664 11.6887 19.5058 11.8814 19.5187 12.0763H19.5216Z" fill="#D9D9D9"/>
</svg>
