<svg width="465" height="237" viewBox="0 0 465 237" fill="none" xmlns="http://www.w3.org/2000/svg">
<path d="M433.512 145.861C445.097 130.763 453.139 118.223 457.637 108.24C457.945 107.562 458.346 107.069 458.839 106.761C459.394 106.391 460.01 106.207 460.688 106.207C461.735 106.207 462.598 106.576 463.276 107.316C463.954 107.994 464.292 108.795 464.292 109.719C464.292 110.15 464.2 110.582 464.015 111.013C461.304 117.175 457.452 124.046 452.461 131.626C447.47 139.205 441.153 147.771 433.512 157.322C433.512 161.205 433.543 165.087 433.605 168.969C433.666 172.851 433.697 177.103 433.697 181.725C433.697 186.346 433.574 190.907 433.327 195.405C433.142 199.965 432.773 204.279 432.218 208.346C431.663 212.474 430.893 216.264 429.907 219.715C428.983 223.227 427.75 226.247 426.21 228.773C424.731 231.362 422.913 233.364 420.756 234.782C418.661 236.261 416.165 237 413.269 237C409.14 237 405.967 235.429 403.749 232.286C401.53 229.143 400.421 224.676 400.421 218.883C400.421 215.802 400.698 212.444 401.253 208.808C401.869 205.234 402.732 201.536 403.841 197.716C404.95 193.895 406.275 190.013 407.816 186.069C409.418 182.187 411.174 178.397 413.084 174.7C414.995 171.002 417.059 167.459 419.277 164.07C421.557 160.681 423.961 157.6 426.487 154.827C426.549 150.513 426.58 146.23 426.58 141.978C426.641 137.726 426.734 133.813 426.857 130.239C425.008 132.581 422.79 134.43 420.202 135.785C417.675 137.141 415.149 137.819 412.622 137.819C410.465 137.819 408.493 137.418 406.706 136.617C404.981 135.754 403.502 134.584 402.27 133.105C401.037 131.564 400.082 129.777 399.404 127.744C398.726 125.71 398.387 123.492 398.387 121.088C398.387 116.282 399.188 112.061 400.791 108.425C402.454 104.728 404.55 101.647 407.076 99.1816C409.603 96.7167 412.376 94.868 415.395 93.6356C418.476 92.4031 421.434 91.7869 424.269 91.7869C426.179 91.7869 427.935 92.0334 429.537 92.5264C431.14 93.0194 432.495 93.574 433.605 94.1902C434.775 94.8064 435.669 95.3918 436.285 95.9464C436.901 96.501 437.24 96.8091 437.302 96.8708C437.98 97.6102 438.319 98.4421 438.319 99.3665C438.319 100.291 437.98 101.123 437.302 101.862C436.624 102.54 435.823 102.879 434.899 102.879C434.036 102.879 433.204 102.54 432.403 101.862C432.156 101.677 431.817 101.431 431.386 101.123C431.016 100.753 430.493 100.383 429.815 100.014C429.199 99.6438 428.428 99.3357 427.504 99.0892C426.641 98.8427 425.594 98.7194 424.361 98.7194C422.513 98.7194 420.479 99.1508 418.261 100.014C416.042 100.815 413.978 102.109 412.068 103.896C410.157 105.683 408.555 107.994 407.261 110.828C405.967 113.601 405.32 116.96 405.32 120.903C405.32 123.861 405.967 126.265 407.261 128.113C408.555 129.9 410.558 130.794 413.269 130.794C414.563 130.794 415.919 130.424 417.336 129.685C418.815 128.945 420.232 127.805 421.588 126.265C422.944 124.724 424.115 122.783 425.101 120.441C426.148 118.1 426.888 115.327 427.319 112.122C427.442 111.26 427.843 110.551 428.521 109.996C429.199 109.38 430 109.072 430.924 109.072C431.972 109.072 432.773 109.442 433.327 110.181C433.943 110.921 434.252 111.753 434.252 112.677C434.252 112.739 434.221 113.694 434.159 115.542C434.098 117.329 434.036 119.733 433.974 122.752C433.913 125.772 433.82 129.284 433.697 133.29C433.635 137.233 433.574 141.424 433.512 145.861ZM426.487 166.104C423.591 170.109 420.972 174.453 418.63 179.137C416.289 183.882 414.286 188.657 412.622 193.464C410.958 198.27 409.664 202.923 408.74 207.421C407.877 211.981 407.446 216.048 407.446 219.623C407.446 221.903 407.631 223.72 408 225.076C408.432 226.432 408.925 227.479 409.479 228.219C410.096 228.958 410.743 229.451 411.42 229.698C412.16 229.944 412.838 230.068 413.454 230.068C415.364 230.068 417.028 229.297 418.445 227.757C419.863 226.216 421.064 224.152 422.05 221.564C423.036 219.037 423.837 216.11 424.454 212.782C425.07 209.455 425.532 206.004 425.84 202.43C426.148 198.917 426.364 195.405 426.487 191.892C426.61 188.38 426.672 185.145 426.672 182.187C426.672 179.537 426.672 176.887 426.672 174.238C426.672 171.588 426.61 168.877 426.487 166.104Z" fill="#E94057"/>
<path d="M336.275 128.483C337.261 126.449 338.401 124.231 339.695 121.828C340.989 119.363 342.375 116.898 343.854 114.433C345.333 111.907 346.874 109.411 348.476 106.946C350.14 104.481 351.865 102.139 353.652 99.921C355.439 97.7642 357.226 96.2236 359.013 95.2993C360.862 94.3133 362.588 93.8203 364.19 93.8203C367.394 93.8203 369.767 94.9912 371.307 97.3328C372.848 99.6745 373.618 102.571 373.618 106.022C373.618 106.823 373.556 107.809 373.433 108.979C373.371 110.089 373.279 111.29 373.156 112.584C373.094 113.878 373.002 115.203 372.878 116.559C372.817 117.853 372.786 119.086 372.786 120.256C372.786 121.735 372.848 123.153 372.971 124.508C373.156 125.864 373.464 127.066 373.895 128.113C374.327 129.099 374.943 129.9 375.744 130.516C376.545 131.071 377.593 131.348 378.887 131.348C381.228 131.348 383.508 130.455 385.727 128.668C387.945 126.819 389.979 124.662 391.827 122.197C393.738 119.671 395.371 117.114 396.726 114.525C398.144 111.937 399.191 109.842 399.869 108.24C400.177 107.562 400.609 107.038 401.163 106.669C401.779 106.299 402.426 106.114 403.104 106.114C404.152 106.114 404.984 106.515 405.6 107.316C406.278 108.055 406.617 108.856 406.617 109.719C406.617 110.15 406.524 110.582 406.339 111.013C406.093 111.506 405.6 112.523 404.86 114.063C404.121 115.604 403.135 117.391 401.903 119.424C400.732 121.396 399.345 123.522 397.743 125.802C396.141 128.021 394.354 130.054 392.382 131.903C390.472 133.752 388.377 135.292 386.096 136.525C383.878 137.757 381.536 138.373 379.072 138.373C376.299 138.373 374.049 137.85 372.324 136.802C370.598 135.693 369.243 134.275 368.257 132.55C367.271 130.763 366.593 128.822 366.223 126.727C365.915 124.57 365.761 122.413 365.761 120.256C365.761 119.332 365.792 118.284 365.854 117.114C365.977 115.943 366.1 114.71 366.223 113.416C366.408 112.122 366.531 110.828 366.593 109.534C366.716 108.24 366.778 107.008 366.778 105.837C366.778 103.865 366.47 102.54 365.854 101.862C365.237 101.123 364.683 100.753 364.19 100.753C363.204 100.753 362.064 101.338 360.77 102.509C359.537 103.618 358.212 105.097 356.795 106.946C355.439 108.795 354.022 110.89 352.543 113.231C351.126 115.511 349.77 117.791 348.476 120.071C347.244 122.351 346.073 124.539 344.964 126.634C343.916 128.668 343.084 130.362 342.468 131.718C341.235 134.306 340.003 136.032 338.771 136.894C337.538 137.819 336.275 138.281 334.981 138.281C333.194 138.281 331.746 137.757 330.636 136.71C329.589 135.6 329.065 134.06 329.065 132.088C329.065 131.656 329.127 130.825 329.25 129.592C329.373 128.298 329.527 126.788 329.712 125.063C329.897 123.276 330.082 121.366 330.267 119.332C330.451 117.298 330.636 115.296 330.821 113.324C331.006 111.29 331.16 109.411 331.283 107.685C331.407 105.96 331.468 104.512 331.468 103.341C331.468 101.8 331.407 100.321 331.283 98.9042C331.16 97.4869 330.914 96.6242 330.544 96.316C329.989 96.5009 329.003 97.6717 327.586 99.8285C326.169 101.924 324.351 105.652 322.132 111.013C321.824 111.691 321.362 112.215 320.746 112.584C320.13 112.954 319.483 113.139 318.805 113.139C317.757 113.139 316.925 112.8 316.309 112.122C315.693 111.383 315.385 110.551 315.385 109.626C315.385 109.195 315.477 108.733 315.662 108.24C318.435 101.646 321.023 96.809 323.427 93.7279C325.891 90.5852 328.326 89.0138 330.729 89.0138C332.146 89.0138 333.348 89.3835 334.334 90.123C335.32 90.8008 336.09 91.7252 336.645 92.896C337.261 94.0668 337.692 95.3609 337.939 96.7782C338.247 98.1955 338.401 99.6437 338.401 101.123C338.401 102.232 338.308 103.957 338.123 106.299C338 108.641 337.815 111.167 337.569 113.878C337.322 116.528 337.076 119.178 336.829 121.828C336.645 124.477 336.46 126.696 336.275 128.483Z" fill="#E94057"/>
<path d="M282.198 111.197C281.52 112.615 280.658 114.309 279.61 116.281C278.624 118.191 277.484 120.194 276.19 122.289C274.896 124.384 273.448 126.48 271.846 128.575C270.243 130.608 268.487 132.457 266.577 134.121C264.728 135.723 262.726 137.017 260.569 138.003C258.474 139.051 256.224 139.574 253.821 139.574C250.124 139.574 246.95 138.434 244.3 136.154C241.651 133.874 239.401 130.886 237.553 127.188C235.704 123.491 234.194 119.301 233.024 114.617C231.914 109.872 231.052 105.066 230.435 100.198C229.819 95.2679 229.388 90.4922 229.141 85.8705C228.956 81.2488 228.864 77.1509 228.864 73.5768C228.864 68.4006 229.018 63.0394 229.326 57.4934C229.696 51.9474 230.251 46.5246 230.99 41.2251C231.729 35.9256 232.654 30.9033 233.763 26.1584C234.934 21.4135 236.29 17.254 237.83 13.6799C239.432 10.1058 241.25 7.27117 243.284 5.176C245.317 3.08084 247.628 2.03326 250.216 2.03326C252.25 2.03326 254.068 2.52624 255.67 3.5122C257.334 4.43654 258.72 5.9771 259.829 8.13388C260.938 10.2907 261.801 13.0945 262.417 16.5453C263.034 19.9962 263.342 24.2173 263.342 29.2087C263.342 35.371 262.695 41.7489 261.401 48.3425C260.107 54.8744 258.35 61.468 256.132 68.1233C253.914 74.7785 251.295 81.4337 248.275 88.0889C245.256 94.6825 242.02 101.122 238.57 107.408C240.11 115.234 242.174 121.396 244.763 125.894C247.351 130.331 250.463 132.549 254.098 132.549C256.563 132.549 258.936 131.594 261.216 129.684C263.496 127.712 265.591 125.401 267.501 122.751C269.412 120.102 271.075 117.421 272.493 114.71C273.972 111.937 275.112 109.718 275.913 108.055C276.221 107.438 276.652 106.976 277.207 106.668C277.761 106.298 278.378 106.113 279.055 106.113C280.103 106.113 280.935 106.483 281.551 107.223C282.229 107.962 282.568 108.794 282.568 109.718C282.568 110.088 282.445 110.581 282.198 111.197ZM235.889 74.039C235.889 77.9828 235.981 81.7726 236.166 85.4083C236.351 89.044 236.598 92.5257 236.906 95.8533C239.494 90.8619 241.959 85.5624 244.3 79.9548C246.642 74.2855 248.706 68.5854 250.493 62.8545C252.281 57.062 253.698 51.3312 254.745 45.6619C255.855 39.931 256.409 34.4774 256.409 29.3012C256.409 22.0297 255.824 16.8226 254.653 13.6799C253.482 10.5372 251.911 8.96578 249.939 8.96578C248.645 8.96578 247.382 9.8593 246.149 11.6464C244.978 13.4334 243.869 15.8675 242.821 18.9486C241.774 22.0297 240.819 25.6654 239.956 29.8558C239.093 34.0461 238.354 38.5445 237.738 43.3511C237.183 48.1576 236.721 53.1798 236.351 58.4177C236.043 63.6556 235.889 68.8627 235.889 74.039Z" fill="#E94057"/>
<path d="M211.765 0C213.86 0 216.11 0.246489 218.513 0.739468C220.978 1.17082 223.258 1.9411 225.353 3.05031C227.448 4.09789 229.174 5.54601 230.529 7.39468C231.885 9.18173 232.563 11.4309 232.563 14.1423C232.563 17.4699 231.577 20.4894 229.605 23.2008C227.695 25.9122 224.983 28.2539 221.471 30.2258C217.958 32.1361 213.737 33.6458 208.807 34.755C203.939 35.8026 198.547 36.3264 192.632 36.3264C185.976 36.3264 178.766 35.8642 171.002 34.9399C169.585 39.3767 168.506 44.3373 167.767 49.8217C167.089 55.3061 166.719 61.4067 166.658 68.1235C168.999 68.0619 171.372 68.0311 173.775 68.0311C176.24 67.9695 178.766 67.9387 181.355 67.9387C184.805 67.9387 188.287 68.0003 191.8 68.1235C195.312 68.1851 198.855 68.2776 202.429 68.4008C203.477 68.4624 204.278 68.863 204.833 69.6025C205.449 70.2803 205.757 71.0814 205.757 72.0057C205.757 72.9917 205.418 73.7928 204.74 74.409C204.062 75.0252 203.261 75.3333 202.337 75.3333C198.825 75.3333 195.312 75.2717 191.8 75.1485C188.349 75.0252 184.929 74.9636 181.54 74.9636C178.951 74.9636 176.425 74.9944 173.96 75.056C171.495 75.056 169.061 75.0868 166.658 75.1485C166.658 76.0112 166.658 76.8431 166.658 77.6442C166.719 78.4453 166.75 79.2772 166.75 80.1399C166.75 89.753 165.302 98.3185 162.406 105.836C159.51 113.293 155.258 119.578 149.65 124.693C144.104 129.808 137.264 133.69 129.13 136.339C120.996 138.989 111.66 140.314 101.122 140.314C93.3579 140.314 86.4562 139.605 80.4172 138.188C74.4398 136.832 69.1711 135.015 64.6111 132.735C60.1126 130.455 56.2304 127.897 52.9644 125.063C49.7601 122.166 47.0795 119.27 44.9227 116.374C42.7659 113.416 41.0405 110.581 39.7464 107.87C38.4524 105.097 37.4972 102.724 36.881 100.753C36.8194 100.568 36.7577 100.414 36.6961 100.29C36.6961 100.106 36.6961 99.9207 36.6961 99.7358C36.6961 98.8115 37.035 98.0104 37.7129 97.3325C38.3907 96.5931 39.2534 96.2233 40.301 96.2233C41.0405 96.2233 41.6875 96.439 42.2421 96.8704C42.8584 97.3017 43.2897 97.8871 43.5362 98.6266C44.0908 100.352 44.9227 102.416 46.0319 104.82C47.1411 107.223 48.6509 109.719 50.5612 112.307C52.5331 114.833 54.9363 117.36 57.771 119.886C60.6672 122.413 64.1489 124.662 68.216 126.634C72.3447 128.606 77.0896 130.208 82.4507 131.441C87.8735 132.673 94.0974 133.289 101.122 133.289C120.472 133.289 135.076 128.791 144.936 119.794C154.857 110.797 159.818 97.5174 159.818 79.955C159.818 79.2155 159.787 78.4761 159.725 77.7366C159.725 76.9355 159.725 76.1652 159.725 75.4258C153.501 75.6723 147.77 75.9804 142.533 76.3501C137.295 76.6582 132.704 76.9971 128.76 77.3669C124.878 77.675 121.735 77.9523 119.332 78.1988C116.928 78.3836 115.45 78.4761 114.895 78.4761C113.847 78.4761 112.923 78.1988 112.122 77.6442C111.321 77.028 110.92 76.1344 110.92 74.9636C110.92 74.1009 111.228 73.3614 111.845 72.7452C112.461 72.0674 113.2 71.6668 114.063 71.5436C114.125 71.5436 115.295 71.4203 117.575 71.1738C119.917 70.9273 123.121 70.65 127.189 70.3419C131.256 69.9722 136.062 69.6333 141.608 69.3252C147.154 68.9554 153.193 68.6473 159.725 68.4008C159.848 54.7823 161.266 43.3205 163.977 34.0155C157.26 33.0296 150.42 31.8588 143.457 30.5031C136.494 29.0858 129.561 27.6068 122.659 26.0663C115.758 24.5257 108.948 23.016 102.232 21.537C95.5763 19.9965 89.1676 18.61 83.0053 17.3775C76.8431 16.1451 71.0506 15.1591 65.6278 14.4196C60.2051 13.6802 55.2753 13.3104 50.8385 13.3104C44.6146 13.3104 38.8221 13.9575 33.4609 15.2515C28.0998 16.484 23.4473 18.3018 19.5035 20.7051C15.6213 23.1084 12.5402 26.0663 10.2601 29.5787C8.04172 33.0296 6.93252 36.9734 6.93252 41.4102C6.93252 44.3065 7.45631 46.9254 8.50389 49.2671C9.61309 51.5471 10.8455 53.519 12.2012 55.1828C13.5569 56.785 14.8202 58.0483 15.991 58.9726C17.1618 59.8353 17.8089 60.2975 17.9321 60.3591C18.4867 60.6672 18.8873 61.0986 19.1337 61.6532C19.3802 62.2078 19.5035 62.7624 19.5035 63.317C19.5035 64.3646 19.1337 65.2273 18.3943 65.9051C17.7164 66.5213 16.9462 66.8295 16.0834 66.8295C15.4056 66.8295 14.7586 66.6138 14.1423 66.1824C12.6634 65.1965 11.092 63.9024 9.42822 62.3002C7.76442 60.698 6.22386 58.8802 4.80654 56.8466C3.45085 54.7515 2.31084 52.4098 1.3865 49.8217C0.462168 47.2335 0 44.4297 0 41.4102C0 35.8642 1.29407 30.9344 3.88221 26.6209C6.53197 22.3073 10.1369 18.6408 14.6969 15.6213C19.257 12.6018 24.6181 10.3217 30.7804 8.78119C37.0042 7.17901 43.7211 6.37791 50.9309 6.37791C55.1828 6.37791 60.0202 6.77846 65.443 7.57955C70.8657 8.31902 76.689 9.30498 82.9129 10.5374C89.1984 11.7699 95.7612 13.1564 102.601 14.6969C109.503 16.2375 116.528 17.8089 123.676 19.411C130.824 20.9516 138.003 22.4305 145.213 23.8479C152.423 25.2652 159.479 26.4668 166.38 27.4528C168.106 22.6462 170.571 18.5175 173.775 15.0667C177.041 11.5542 180.738 8.68875 184.867 6.47035C188.996 4.25194 193.371 2.61895 197.993 1.57137C202.676 0.52379 207.267 0 211.765 0ZM225.538 13.9575C225.538 12.4785 225.045 11.3077 224.059 10.445C223.135 9.52065 221.964 8.812 220.546 8.31902C219.129 7.76442 217.619 7.39468 216.017 7.20982C214.477 7.02495 213.059 6.93252 211.765 6.93252C208.807 6.93252 205.511 7.24063 201.875 7.85685C198.301 8.47307 194.727 9.58228 191.153 11.1845C187.64 12.7866 184.313 14.9742 181.17 17.7472C178.089 20.5202 175.562 24.0635 173.59 28.3771C180.43 29.1166 186.747 29.4863 192.539 29.4863C197.284 29.4863 201.659 29.1166 205.665 28.3771C209.732 27.576 213.213 26.4976 216.11 25.1419C219.068 23.7862 221.378 22.1532 223.042 20.2429C224.706 18.3327 225.538 16.2375 225.538 13.9575Z" fill="#E94057"/>
<mask id="mask0_925_2209" style="mask-type:alpha" maskUnits="userSpaceOnUse" x="274" y="55" width="49" height="86">
<path d="M291.074 64.242C291.074 66.5836 290.243 68.5863 288.579 70.2501C286.977 71.8523 285.005 72.6534 282.663 72.6534C280.321 72.6534 278.319 71.8523 276.655 70.2501C275.053 68.5863 274.252 66.5836 274.252 64.242C274.252 63.0711 274.467 61.9927 274.899 61.0068C275.33 59.9592 275.915 59.0657 276.655 58.3262C277.456 57.5251 278.349 56.9089 279.335 56.4775C280.383 56.0462 281.492 55.8305 282.663 55.8305C283.834 55.8305 284.912 56.0462 285.898 56.4775C286.946 56.9089 287.839 57.5251 288.579 58.3262C289.38 59.0657 289.996 59.9592 290.427 61.0068C290.859 61.9927 291.074 63.0711 291.074 64.242ZM276.1 118.408C276.1 109.534 276.655 100.692 277.764 91.8796C277.887 91.0169 278.257 90.2774 278.873 89.6612C279.551 88.9833 280.414 88.6444 281.461 88.6444C282.386 88.6444 283.156 89.0142 283.772 89.7536C284.388 90.4315 284.697 91.2326 284.697 92.1569C284.697 92.5266 284.604 93.6358 284.419 95.4845C284.296 97.3332 284.111 99.5516 283.865 102.14C283.68 104.666 283.495 107.378 283.31 110.274C283.187 113.109 283.125 115.727 283.125 118.131C283.125 121.397 283.433 124.046 284.05 126.08C284.727 128.052 285.559 129.592 286.545 130.702C287.593 131.811 288.671 132.55 289.78 132.92C290.951 133.29 292.06 133.475 293.108 133.475C294.833 133.475 296.621 132.858 298.469 131.626C300.318 130.394 302.197 128.668 304.108 126.45C306.08 124.231 308.051 121.582 310.023 118.5C311.995 115.358 313.936 111.876 315.847 108.055C316.155 107.439 316.586 106.977 317.141 106.669C317.695 106.299 318.312 106.114 318.989 106.114C319.975 106.114 320.776 106.484 321.393 107.224C322.071 107.963 322.409 108.764 322.409 109.627C322.409 110.243 322.286 110.767 322.04 111.198C321.3 112.616 320.376 114.341 319.267 116.374C318.158 118.408 316.894 120.503 315.477 122.66C314.06 124.817 312.488 126.974 310.763 129.13C309.099 131.225 307.312 133.136 305.402 134.861C303.491 136.525 301.489 137.881 299.394 138.928C297.298 139.976 295.172 140.5 293.016 140.5C290.243 140.5 287.809 139.914 285.713 138.743C283.618 137.573 281.831 136.001 280.352 134.029C278.935 132.057 277.856 129.747 277.117 127.097C276.439 124.385 276.1 121.489 276.1 118.408ZM285.898 64.242C285.898 63.3792 285.559 62.6398 284.881 62.0236C284.265 61.3457 283.526 61.0068 282.663 61.0068C281.8 61.0068 281.061 61.3457 280.445 62.0236C279.828 62.6398 279.52 63.3792 279.52 64.242C279.52 65.1047 279.828 65.8441 280.445 66.4604C281.061 67.0766 281.8 67.3847 282.663 67.3847C283.526 67.3847 284.265 67.0766 284.881 66.4604C285.559 65.8441 285.898 65.1047 285.898 64.242Z" fill="black"/>
</mask>
<g mask="url(#mask0_925_2209)">
<rect x="268.811" y="81.9035" width="64.3633" height="71.9355" fill="#E94057"/>
</g>
<path d="M288.246 58.1362C285.738 54.8903 282.37 53.2479 279.509 54.258C275.453 55.6896 273.951 61.9083 276.153 68.1477C277.602 72.2498 280.291 75.3396 283.115 76.5682" stroke="#E94057" stroke-width="2.4" stroke-linecap="round" stroke-linejoin="round"/>
<path d="M284.21 61.7276C279.908 66.7548 279.069 73.0971 282.337 75.8935C285.605 78.6899 291.741 76.8815 296.043 71.8543C300.346 66.827 301.184 60.4847 297.917 57.6883C294.649 54.8919 288.512 56.7004 284.21 61.7276Z" stroke="#E94057" stroke-width="2.4" stroke-linecap="round" stroke-linejoin="round"/>
<path d="M268.143 176.559V165.05C268.143 164.708 268.371 164.48 268.714 164.48H270.244C270.586 164.48 270.815 164.708 270.815 165.05V176.559C270.815 176.901 270.586 177.13 270.244 177.13H268.714C268.371 177.13 268.143 176.901 268.143 176.559ZM263.964 167.151H256.909C256.863 167.813 256.84 168.59 256.817 169.366H263.211C263.553 169.366 263.782 169.594 263.782 169.937V170.782C263.782 171.124 263.553 171.353 263.211 171.353H256.795C256.772 172.243 256.795 172.997 256.817 173.362C256.863 173.979 257.091 174.298 257.708 174.298C260.22 174.298 262.663 174.07 265.083 173.499C265.449 173.408 265.7 173.636 265.768 174.024L265.928 174.846C265.997 175.234 265.791 175.486 265.426 175.554C262.731 176.125 260.22 176.376 257.251 176.376C255.173 176.376 254.214 175.508 254.123 173.408C254.054 171.855 254.123 168.772 254.374 165.621C254.397 165.256 254.625 165.005 254.991 165.005H263.964C264.307 165.005 264.535 165.233 264.535 165.576V166.58C264.535 166.923 264.307 167.151 263.964 167.151ZM256.11 181.285C256.11 178.728 259.124 177.335 263.622 177.335C268.12 177.335 271.134 178.728 271.134 181.285C271.134 183.843 268.12 185.236 263.622 185.236C259.124 185.236 256.11 183.843 256.11 181.285ZM258.827 181.285C258.827 182.45 260.676 183.158 263.622 183.158C266.568 183.158 268.417 182.45 268.417 181.285C268.417 180.121 266.568 179.413 263.622 179.413C260.676 179.413 258.827 180.121 258.827 181.285Z" fill="#E94057" fill-opacity="0.6"/>
<path d="M247.663 184.345V174.412H245.608V183.889C245.608 184.231 245.379 184.459 245.037 184.459H243.621C243.279 184.459 243.05 184.231 243.05 183.889V165.324C243.05 164.982 243.279 164.754 243.621 164.754H245.037C245.379 164.754 245.608 164.982 245.608 165.324V172.266H247.663V165.05C247.663 164.708 247.891 164.48 248.234 164.48H249.695C250.037 164.48 250.266 164.708 250.266 165.05V184.345C250.266 184.688 250.037 184.916 249.695 184.916H248.234C247.891 184.916 247.663 184.688 247.663 184.345ZM232.889 180.783C236.976 176.696 238.529 172.357 238.529 168.59C238.529 168.133 238.415 167.95 237.958 167.927C236.154 167.836 234.716 167.927 233.209 168.156C232.866 168.202 232.638 167.996 232.592 167.653L232.455 166.603C232.41 166.261 232.638 166.009 232.98 165.964C235.104 165.713 236.954 165.644 239.009 165.781C240.584 165.872 241.246 166.626 241.224 168.11C241.155 173.179 239.579 177.906 234.784 182.541C234.533 182.77 234.282 182.815 234.031 182.587L232.889 181.559C232.615 181.331 232.592 181.034 232.889 180.783Z" fill="#E94057" fill-opacity="0.6"/>
<path d="M212.5 175.303C215.994 172.334 219.031 168.909 220.994 165.484C221.154 165.21 221.314 165.096 221.657 165.279L223.049 165.987C223.323 166.124 223.392 166.329 223.232 166.626C222.775 167.494 222.227 168.361 221.611 169.229C224.831 171.147 227.068 173.065 229.1 175.257C229.329 175.508 229.283 175.782 229.032 175.988L227.776 177.061C227.525 177.267 227.297 177.198 227.091 176.947C225.15 174.641 222.912 172.654 220.195 171.101C218.437 173.271 216.336 175.394 214.098 177.198C213.847 177.404 213.55 177.358 213.368 177.13L212.386 176.011C212.18 175.76 212.249 175.508 212.5 175.303ZM211.062 182.427V181.559C211.062 181.171 211.313 180.92 211.701 180.92H219.259V176.262C219.259 175.965 219.464 175.76 219.761 175.76H221.428C221.725 175.76 221.931 175.965 221.931 176.262V180.92H229.58C229.923 180.92 230.151 181.171 230.151 181.559V182.427C230.151 182.815 229.923 183.066 229.58 183.066H211.701C211.313 183.066 211.062 182.815 211.062 182.427Z" fill="#E94057" fill-opacity="0.6"/>
<path d="M199.212 170.051V169.252C199.212 168.864 199.464 168.613 199.852 168.613H205.126V165.05C205.126 164.708 205.355 164.48 205.697 164.48H207.227C207.57 164.48 207.798 164.708 207.798 165.05V174.801C207.798 175.143 207.57 175.371 207.227 175.371H205.697C205.355 175.371 205.126 175.143 205.126 174.801V170.69H199.852C199.464 170.69 199.212 170.439 199.212 170.051ZM200.628 167.105H194.189C194.075 168.704 194.029 170.713 194.098 172.083C194.12 172.7 194.372 173.019 194.988 173.019C197.18 173.019 199.715 172.723 202.135 172.22C202.5 172.152 202.752 172.357 202.82 172.745L202.98 173.613C203.049 174.001 202.843 174.253 202.478 174.321C199.783 174.892 197.066 175.166 194.531 175.143C192.454 175.12 191.494 174.275 191.403 172.175C191.335 170.165 191.403 168.27 191.654 165.576C191.677 165.21 191.905 164.959 192.271 164.959H200.628C200.971 164.959 201.199 165.187 201.199 165.53V166.535C201.199 166.877 200.971 167.105 200.628 167.105ZM193.23 182.975C193.184 181.285 193.184 179.139 193.253 177.381C193.276 177.107 193.481 176.878 193.755 176.856C197.408 176.445 201.678 176.399 204.898 176.65C206.93 176.81 207.821 177.678 207.821 179.299C207.821 180.966 207.775 182.473 207.661 184.163C207.638 184.459 207.387 184.619 207.113 184.642C203.323 184.893 198.847 185.007 195.239 184.916C194.006 184.893 193.276 184.208 193.23 182.975ZM195.901 178.751C195.856 179.847 195.856 181.034 195.879 182.176C195.901 182.587 196.107 182.792 196.518 182.792C198.984 182.815 201.998 182.77 205.126 182.61C205.149 181.24 205.149 180.235 205.149 179.459C205.149 178.979 204.898 178.751 204.487 178.728C201.884 178.523 198.208 178.591 195.901 178.751Z" fill="#E94057" fill-opacity="0.6"/>
<path d="M184.646 178.637V172.289H182.705V178.408C182.705 178.751 182.477 178.979 182.134 178.979H180.719C180.376 178.979 180.148 178.751 180.148 178.408V165.324C180.148 164.982 180.376 164.754 180.719 164.754H182.134C182.477 164.754 182.705 164.982 182.705 165.324V170.142H184.646V165.05C184.646 164.708 184.874 164.48 185.217 164.48H186.678C187.021 164.48 187.249 164.708 187.249 165.05V178.637C187.249 178.979 187.021 179.208 186.678 179.208H185.217C184.874 179.208 184.646 178.979 184.646 178.637ZM172.087 177.084C169.941 177.015 169.096 176.102 169.027 174.344C168.959 172.951 169.165 171.672 169.713 170.394C169.827 170.097 170.009 169.914 170.352 169.914H175.056C175.238 169.366 175.284 168.75 175.284 168.133C175.284 167.562 175.01 167.288 174.279 167.197C173.138 167.06 171.905 167.197 170.58 167.471C170.238 167.539 169.964 167.379 169.895 167.037L169.713 166.078C169.644 165.735 169.781 165.461 170.124 165.393C171.631 165.05 173.115 164.959 174.713 165.119C176.814 165.324 177.841 166.375 177.864 167.859C177.887 169.138 177.773 170.234 177.408 171.444C177.293 171.832 177.042 171.901 176.677 171.901H171.813C171.631 172.403 171.539 173.316 171.539 173.887C171.539 174.664 171.95 174.983 172.886 175.006C174.736 175.075 176.54 174.869 178.252 174.367C178.618 174.253 178.892 174.412 178.983 174.778L179.212 175.737C179.303 176.102 179.12 176.353 178.755 176.445C176.22 177.107 174.257 177.175 172.087 177.084ZM174.964 178.797C174.805 179.778 174.713 181.08 174.713 181.856C174.713 182.336 174.942 182.587 175.375 182.61C178.389 182.77 183.39 182.61 186.907 182.29C187.249 182.267 187.546 182.381 187.592 182.724L187.706 183.729C187.751 184.071 187.592 184.368 187.249 184.414C183.778 184.802 179.189 184.962 174.439 184.756C172.772 184.688 171.905 183.774 171.905 182.13C171.905 181.194 172.042 179.664 172.224 178.728C172.293 178.408 172.544 178.18 172.864 178.203L174.531 178.271C174.85 178.294 175.01 178.477 174.964 178.797Z" fill="#E94057" fill-opacity="0.6"/>
<path d="M142.336 182.541V181.674C142.336 181.285 142.587 181.034 142.976 181.034H150.534V177.906C149.872 177.906 149.232 177.906 148.593 177.86C146.127 177.7 144.825 176.559 144.825 174.549C144.825 173.111 145.122 172.015 145.602 171.033C145.761 170.736 145.898 170.531 146.241 170.531H155.991C156.151 170.051 156.219 169.412 156.197 168.932C156.174 168.133 155.808 167.836 154.964 167.722C152.68 167.402 149.346 167.494 146.446 167.836C146.104 167.882 145.807 167.745 145.761 167.402L145.624 166.398C145.579 166.055 145.739 165.758 146.081 165.713C149.164 165.302 152.475 165.233 155.42 165.553C157.749 165.804 158.891 166.9 158.891 168.75C158.891 170.211 158.731 170.736 158.32 172.175C158.252 172.449 157.978 172.631 157.681 172.631H147.885C147.611 173.088 147.52 173.545 147.542 174.093C147.588 174.983 148.022 175.714 148.981 175.76C151.721 175.897 155.238 175.577 158.457 174.823C158.8 174.732 159.074 174.915 159.142 175.257L159.348 176.171C159.416 176.513 159.234 176.764 158.891 176.856C157.041 177.289 155.123 177.632 153.205 177.792V181.034H160.855C161.197 181.034 161.426 181.285 161.426 181.674V182.541C161.426 182.929 161.197 183.181 160.855 183.181H142.976C142.587 183.181 142.336 182.929 142.336 182.541Z" fill="#E94057" fill-opacity="0.6"/>
<path d="M123.454 171.284C123.454 167.562 126.628 165.187 130.875 165.187C135.123 165.187 138.319 167.562 138.319 171.284C138.319 175.006 135.123 177.381 130.875 177.381C126.628 177.381 123.454 175.006 123.454 171.284ZM126.194 171.284C126.194 173.864 128.09 175.189 130.875 175.189C133.661 175.189 135.579 173.864 135.579 171.284C135.579 168.704 133.661 167.38 130.875 167.38C128.09 167.38 126.194 168.704 126.194 171.284ZM121.331 182.427V181.559C121.331 181.171 121.582 180.92 121.97 180.92H139.849C140.192 180.92 140.42 181.171 140.42 181.559V182.427C140.42 182.815 140.192 183.067 139.849 183.067H121.97C121.582 183.067 121.331 182.815 121.331 182.427Z" fill="#E94057" fill-opacity="0.6"/>
<path d="M101.535 173.408C101.444 170.964 101.421 168.339 101.49 165.872C101.49 165.53 101.718 165.302 102.061 165.302H103.59C103.933 165.302 104.161 165.53 104.161 165.872C104.161 166.694 104.116 167.379 104.116 168.27H109.299C109.276 167.379 109.276 166.694 109.276 165.872C109.276 165.53 109.504 165.302 109.847 165.302H111.354C111.697 165.302 111.925 165.53 111.925 165.872C111.925 167.014 111.948 168.065 111.948 169.298H115.396V165.05C115.396 164.708 115.624 164.48 115.967 164.48H117.496C117.839 164.48 118.067 164.708 118.067 165.05V178.408C118.067 178.751 117.839 178.979 117.496 178.979H115.967C115.624 178.979 115.396 178.751 115.396 178.408V171.444H111.925C111.902 172.471 111.879 173.499 111.834 174.458C111.811 174.869 111.674 175.006 111.263 175.052C108.819 175.303 106.057 175.44 103.705 175.417C102.38 175.417 101.581 174.618 101.535 173.408ZM109.299 170.348H104.138C104.161 171.193 104.184 172.038 104.207 172.837C104.207 173.111 104.39 173.294 104.664 173.294C106.239 173.294 107.723 173.225 109.23 173.088C109.276 172.22 109.299 171.284 109.299 170.348ZM107.038 177.746C106.787 179.299 106.696 180.167 106.696 181.559C106.696 182.107 106.924 182.587 107.427 182.61C109.916 182.77 114.596 182.587 117.428 182.267C117.77 182.222 118.067 182.359 118.113 182.701L118.25 183.706C118.296 184.048 118.136 184.345 117.793 184.391C115.008 184.779 110.783 184.962 106.49 184.756C104.824 184.688 103.933 183.774 103.933 182.13C103.933 180.509 104.047 179.116 104.321 177.541C104.367 177.221 104.641 176.993 104.961 177.015L106.559 177.13C106.924 177.152 107.107 177.358 107.038 177.746Z" fill="#E94057" fill-opacity="0.6"/>
<path d="M78.7944 164H80.2786C80.6211 164 80.8495 164.251 80.8495 164.594V166.398H84.8683C85.2108 166.398 85.4391 166.626 85.4391 166.968V167.905C85.4391 168.247 85.2108 168.475 84.8683 168.475H74.2276C73.8394 168.475 73.5882 168.224 73.5882 167.836V167.037C73.5882 166.649 73.8394 166.398 74.2276 166.398H78.2236V164.594C78.2236 164.251 78.4519 164 78.7944 164ZM87.2887 178.454V165.05C87.2887 164.708 87.517 164.48 87.8595 164.48H89.3894C89.7319 164.48 89.9603 164.708 89.9603 165.05V171.216H92.7917C93.1799 171.216 93.431 171.467 93.431 171.855V172.723C93.431 173.111 93.1799 173.362 92.7917 173.362H89.9603V178.454C89.9603 178.796 89.7319 179.025 89.3894 179.025H87.8595C87.517 179.025 87.2887 178.796 87.2887 178.454ZM84.9596 173.202C84.9596 175.714 82.8589 177.312 79.5251 177.312C76.1913 177.312 74.0677 175.714 74.0677 173.202C74.0677 170.69 76.1913 169.092 79.5251 169.092C82.8589 169.092 84.9596 170.69 84.9596 173.202ZM76.7393 173.202C76.7393 174.458 77.744 175.326 79.5251 175.326C81.3061 175.326 82.288 174.481 82.288 173.202C82.288 171.923 81.3061 171.079 79.5251 171.079C77.744 171.079 76.7393 171.946 76.7393 173.202ZM79.3881 179.07C79.2511 180.075 79.1826 180.783 79.2054 181.696C79.2054 182.267 79.3881 182.564 80.0503 182.61C82.3794 182.747 86.6493 182.587 89.4808 182.267C89.8233 182.222 90.1201 182.359 90.1658 182.701L90.3028 183.729C90.3484 184.071 90.1886 184.368 89.8461 184.414C87.0603 184.802 83.3155 184.962 79.0227 184.756C77.3559 184.688 76.4425 183.774 76.4425 182.13C76.4425 180.737 76.511 179.915 76.6708 178.865C76.7165 178.545 76.9905 178.317 77.3102 178.34L78.9086 178.454C79.2739 178.477 79.4338 178.682 79.3881 179.07Z" fill="#E94057" fill-opacity="0.6"/>
<path d="M60.5746 178.431V165.05C60.5746 164.708 60.8029 164.48 61.1454 164.48H62.6753C63.0178 164.48 63.2462 164.708 63.2462 165.05V170.439H66.0776C66.4658 170.439 66.717 170.69 66.717 171.079V171.946C66.717 172.334 66.4658 172.586 66.0776 172.586H63.2462V178.431C63.2462 178.774 63.0178 179.002 62.6753 179.002H61.1454C60.8029 179.002 60.5746 178.774 60.5746 178.431ZM56.944 167.379H50.5048C50.3906 168.978 50.3449 170.782 50.4134 172.152C50.4363 172.768 50.6874 173.088 51.3039 173.088C53.496 173.088 56.0306 172.791 58.451 172.289C58.8164 172.22 59.0675 172.426 59.136 172.814L59.2959 173.682C59.3644 174.07 59.1589 174.321 58.7935 174.39C56.0991 174.96 53.3819 175.234 50.8473 175.212C48.7694 175.189 47.8103 174.344 47.719 172.243C47.6505 170.234 47.719 168.544 47.9702 165.85C47.993 165.484 48.2213 165.233 48.5867 165.233H56.944C57.2865 165.233 57.5148 165.461 57.5148 165.804V166.809C57.5148 167.151 57.2865 167.379 56.944 167.379ZM52.7653 177.769C52.5827 179.322 52.4913 180.372 52.4913 181.833C52.4913 182.313 52.7197 182.564 53.1535 182.587C55.7109 182.747 59.9352 182.587 62.7667 182.267C63.1092 182.222 63.406 182.359 63.4517 182.701L63.5887 183.729C63.6344 184.071 63.4745 184.368 63.132 184.414C60.3462 184.802 56.5786 184.962 52.2858 184.756C50.6189 184.688 49.7284 183.774 49.7284 182.13C49.7284 180.509 49.8426 179.139 50.0481 177.563C50.0937 177.244 50.3678 177.015 50.6874 177.038L52.2858 177.152C52.6512 177.175 52.811 177.381 52.7653 177.769Z" fill="#E94057" fill-opacity="0.6"/>
<path d="M28.3119 169.298C26.6221 169.069 24.0647 169.206 22.0782 169.526C21.7356 169.572 21.5073 169.343 21.4388 169.024L21.279 168.064C21.2105 167.722 21.4388 167.448 21.7813 167.402C22.8088 167.242 23.9506 167.128 25.0694 167.083V164.776C25.0694 164.434 25.2978 164.183 25.6403 164.183H27.1245C27.467 164.183 27.6953 164.434 27.6953 164.776V167.105C28.3347 167.128 28.9284 167.197 29.4764 167.265C31.326 167.494 31.9653 168.521 31.2575 170.348C30.7323 171.718 29.9331 173.225 28.9512 174.801C30.5953 177.084 31.9425 179.527 33.0157 181.651C33.1527 181.948 33.0842 182.244 32.696 182.404L31.326 182.998C30.9606 183.181 30.7094 182.975 30.5496 182.633C29.7504 180.92 28.6772 178.979 27.3985 177.152C25.9828 179.162 24.3616 181.126 22.7403 182.861C22.4892 183.135 22.2152 183.181 21.9412 182.952L20.7766 181.948C20.5254 181.719 20.5026 181.4 20.7538 181.148C24.2246 177.381 27.2843 173.248 28.6315 169.983C28.7914 169.594 28.6772 169.343 28.3119 169.298ZM35.2534 184.345V165.05C35.2534 164.708 35.4818 164.48 35.8243 164.48H37.3542C37.6967 164.48 37.925 164.708 37.925 165.05V184.345C37.925 184.688 37.6967 184.916 37.3542 184.916H35.8243C35.4818 184.916 35.2534 184.688 35.2534 184.345Z" fill="#E94057" fill-opacity="0.6"/>
<path d="M10.0692 174.024V173.157C10.0692 172.768 10.3203 172.517 10.7085 172.517H14.2478V165.05C14.2478 164.708 14.4761 164.48 14.8187 164.48H16.3485C16.691 164.48 16.9194 164.708 16.9194 165.05V184.345C16.9194 184.688 16.691 184.916 16.3485 184.916H14.8187C14.4761 184.916 14.2478 184.688 14.2478 184.345V174.664H10.7085C10.3203 174.664 10.0692 174.412 10.0692 174.024ZM9.33847 167.471H3.19611C3.01344 169.024 2.87643 170.805 2.78509 172.563H8.49361C8.83613 172.563 9.06447 172.791 9.06447 173.134V174.093C9.06447 174.435 8.83613 174.664 8.49361 174.664H2.71659C2.67092 176.33 2.73943 177.906 2.89926 179.116C3.01343 179.961 3.51578 180.281 4.1323 180.281C6.32438 180.281 8.1511 180.03 10.5715 179.527C10.9369 179.459 11.188 179.664 11.2565 180.052L11.4164 180.92C11.4849 181.308 11.2794 181.559 10.914 181.628C8.21961 182.199 6.21021 182.427 3.67562 182.404C1.59772 182.381 0.478853 181.4 0.18201 179.093C-0.229004 175.828 0.113508 169.891 0.638691 165.941C0.684359 165.576 0.9127 165.324 1.27805 165.324H9.33847C9.68099 165.324 9.90933 165.553 9.90933 165.895V166.9C9.90933 167.242 9.68099 167.471 9.33847 167.471Z" fill="#E94057" fill-opacity="0.6"/>
</svg>
