<svg width="25" height="25" viewBox="0 0 25 25" fill="none" xmlns="http://www.w3.org/2000/svg">
<path fill-rule="evenodd" clip-rule="evenodd" d="M12.5 13.9727L18.3927 19.8655C18.5892 20.0552 18.8523 20.1602 19.1255 20.1578C19.3986 20.1554 19.6598 20.0459 19.853 19.8528C20.0461 19.6596 20.1557 19.3984 20.158 19.1252C20.1604 18.8521 20.0554 18.589 19.8657 18.3925L13.973 12.4998L19.8657 6.60712C20.0554 6.41066 20.1604 6.14753 20.158 5.87441C20.1557 5.60129 20.0461 5.34003 19.853 5.14689C19.6598 4.95376 19.3986 4.84421 19.1255 4.84184C18.8523 4.83946 18.5892 4.94446 18.3927 5.1342L12.5 11.0269L6.60733 5.1342C6.40999 4.94915 6.14839 4.84813 5.87788 4.85252C5.60738 4.85691 5.3492 4.96637 5.15797 5.15774C4.96673 5.34911 4.85746 5.60737 4.85325 5.87787C4.84905 6.14838 4.95026 6.40991 5.13546 6.60712L11.0271 12.4998L5.13441 18.3925C5.03492 18.4886 4.95557 18.6036 4.90098 18.7307C4.84638 18.8577 4.81765 18.9944 4.81645 19.1327C4.81524 19.2711 4.8416 19.4082 4.89398 19.5362C4.94635 19.6643 5.0237 19.7806 5.1215 19.8784C5.21931 19.9762 5.33561 20.0535 5.46363 20.1059C5.59165 20.1583 5.72881 20.1846 5.86712 20.1834C6.00544 20.1822 6.14212 20.1535 6.26921 20.0989C6.3963 20.0443 6.51124 19.9649 6.60733 19.8655L12.5 13.9727Z" fill="#E94057"/>
</svg>
