<svg width="25" height="25" viewBox="0 0 25 25" fill="none" xmlns="http://www.w3.org/2000/svg">
<g clip-path="url(#clip0_999_3002)">
<path d="M2.807 2.33105L20.7967 20.3208C21.1381 20.6622 21.3299 21.1252 21.3299 21.6079C21.3299 22.0907 21.1381 22.5536 20.7967 22.895C20.4553 23.2362 19.9924 23.4279 19.5096 23.4279C19.0269 23.4279 18.564 23.2362 18.2225 22.895L13.828 18.4248C13.5404 18.1328 13.3791 17.7394 13.3788 17.3296V17.0596C13.3788 16.8526 13.3377 16.6477 13.2579 16.4568C13.1781 16.2658 13.0612 16.0926 12.9139 15.9473L12.3465 15.4233C12.1539 15.2456 11.9197 15.1192 11.6654 15.0557C11.4112 14.9922 11.145 14.9937 10.8915 15.0601C10.4917 15.1644 10.0715 15.1624 9.67269 15.0542C9.27389 14.946 8.91031 14.7354 8.61803 14.4434L4.44665 10.2715C1.97204 7.79687 1.06139 4.06006 2.807 2.33105Z" stroke="#E94057" stroke-width="2" stroke-linejoin="round"/>
<path d="M19.5308 1.5625L15.7589 5.33447C15.4686 5.62467 15.2384 5.9692 15.0813 6.34838C14.9242 6.72757 14.8433 7.13399 14.8433 7.54443V8.27002C14.8433 8.37268 14.8231 8.47434 14.7838 8.56918C14.7445 8.66402 14.6869 8.75019 14.6143 8.82275L14.0621 9.375M15.6246 10.9375L16.1768 10.3853C16.2494 10.3126 16.3356 10.255 16.4304 10.2157C16.5252 10.1764 16.6269 10.1562 16.7296 10.1562H17.4551C17.8656 10.1563 18.272 10.0754 18.6512 9.91831C19.0304 9.76122 19.3749 9.53098 19.6651 9.24072L23.4371 5.46875M21.484 3.51562L17.5777 7.42188M9.76521 17.9688L4.89607 22.8652C4.5298 23.2314 4.03311 23.4371 3.51521 23.4371C2.99731 23.4371 2.50061 23.2314 2.13435 22.8652C1.76819 22.499 1.5625 22.0023 1.5625 21.4844C1.5625 20.9665 1.76819 20.4698 2.13435 20.1035L6.24958 16.0156" stroke="#E94057" stroke-width="2" stroke-linecap="round" stroke-linejoin="round"/>
</g>
<defs>
<clipPath id="clip0_999_3002">
<rect width="25" height="25" fill="white"/>
</clipPath>
</defs>
</svg>
