<svg width="25" height="25" viewBox="0 0 25 25" fill="none" xmlns="http://www.w3.org/2000/svg">
<path fill-rule="evenodd" clip-rule="evenodd" d="M17.0057 15.5202L22.6098 21.1243C22.8068 21.3215 22.9174 21.5888 22.9173 21.8674C22.9172 22.1461 22.8064 22.4133 22.6093 22.6103C22.4122 22.8073 22.1449 22.9179 21.8662 22.9178C21.5876 22.9177 21.3203 22.8069 21.1234 22.6098L15.5192 17.0056C13.8439 18.3032 11.7372 18.9138 9.62766 18.7133C7.51813 18.5127 5.56423 17.516 4.16345 15.926C2.76267 14.336 2.02023 12.2721 2.08717 10.1541C2.15411 8.03609 3.0254 6.02316 4.52379 4.52477C6.02218 3.02637 8.03512 2.15509 10.1531 2.08815C12.2711 2.02121 14.335 2.76365 15.925 4.16443C17.5151 5.56521 18.5117 7.51911 18.7123 9.62864C18.9128 11.7382 18.3022 13.8449 17.0046 15.5202M10.4171 16.6671C12.0747 16.6671 13.6644 16.0086 14.8365 14.8365C16.0086 13.6644 16.6671 12.0747 16.6671 10.4171C16.6671 8.75945 16.0086 7.16974 14.8365 5.99763C13.6644 4.82553 12.0747 4.16705 10.4171 4.16705C8.75951 4.16705 7.1698 4.82553 5.9977 5.99763C4.8256 7.16974 4.16712 8.75945 4.16712 10.4171C4.16712 12.0747 4.8256 13.6644 5.9977 14.8365C7.1698 16.0086 8.75951 16.6671 10.4171 16.6671Z" fill="#E94057"/>
</svg>
