<svg width="21" height="20" viewBox="0 0 21 20" fill="none" xmlns="http://www.w3.org/2000/svg">
<path d="M7.16667 10.8337V14.167M13.8333 4.16699V4.58366C13.8333 5.02569 14.0089 5.44961 14.3215 5.76217C14.634 6.07473 15.058 6.25033 15.5 6.25033C15.942 6.25033 16.366 6.42592 16.6785 6.73848C16.9911 7.05104 17.1667 7.47496 17.1667 7.91699V8.33366M3 11.667C3 11.446 3.0878 11.234 3.24408 11.0777C3.40036 10.9215 3.61232 10.8337 3.83333 10.8337H17.1667C17.3877 10.8337 17.5996 10.9215 17.7559 11.0777C17.9122 11.234 18 11.446 18 11.667V13.3337C18 13.5547 17.9122 13.7666 17.7559 13.9229C17.5996 14.0792 17.3877 14.167 17.1667 14.167H3.83333C3.61232 14.167 3.40036 14.0792 3.24408 13.9229C3.0878 13.7666 3 13.5547 3 13.3337V11.667Z" stroke="white" stroke-width="1.5" stroke-linecap="round" stroke-linejoin="round"/>
</svg>
