<svg width="25" height="25" viewBox="0 0 25 25" fill="none" xmlns="http://www.w3.org/2000/svg">
<path d="M17.208 2.22989C17.7207 1.71751 18.4159 1.42969 19.1408 1.42969C19.8656 1.42969 20.5608 1.71751 21.0736 2.22989L22.7705 3.92676C23.2828 4.4395 23.5707 5.13471 23.5707 5.85957C23.5707 6.58444 23.2828 7.27965 22.7705 7.79238L9.31734 21.2455C8.98921 21.5736 8.58296 21.8143 8.13609 21.9408L3.0564 23.3939C2.85534 23.4514 2.64257 23.454 2.44016 23.4015C2.23775 23.349 2.05307 23.2433 1.90529 23.0954C1.75751 22.9474 1.652 22.7626 1.59972 22.5602C1.54744 22.3577 1.55028 22.1449 1.60796 21.9439L3.05952 16.8658C3.18609 16.4189 3.42671 16.0111 3.75484 15.6814L17.208 2.22832V2.22989ZM17.483 9.76582L15.2345 7.51582L5.41265 17.3393C5.3655 17.3861 5.33109 17.4442 5.31265 17.508L4.44077 20.5596L7.49234 19.6877C7.55618 19.6693 7.61426 19.6348 7.66109 19.5877L17.483 9.76582ZM19.4173 3.88613C19.3811 3.84976 19.3379 3.8209 19.2905 3.8012C19.243 3.78151 19.1922 3.77137 19.1408 3.77137C19.0894 3.77137 19.0385 3.78151 18.9911 3.8012C18.9436 3.8209 18.9005 3.84976 18.8642 3.88613L16.8923 5.85957L19.1408 8.10957L21.1142 6.13614C21.1506 6.09985 21.1795 6.05674 21.1991 6.00929C21.2188 5.96183 21.229 5.91095 21.229 5.85957C21.229 5.80819 21.2188 5.75732 21.1991 5.70986C21.1795 5.6624 21.1506 5.6193 21.1142 5.58301L19.4173 3.88613Z" fill="#E94057"/>
</svg>
