<svg width="20" height="20" viewBox="0 0 20 20" fill="none" xmlns="http://www.w3.org/2000/svg">
<g clip-path="url(#clip0_776_703)">
<path d="M2.78317 14.1668C5.08317 18.1527 10.1798 19.5168 14.1665 17.2168C15.7295 16.3176 16.957 14.9336 17.6632 13.2743C18.1726 12.0846 18.3974 10.7925 18.3199 9.50066C18.2423 8.20882 17.8645 6.95288 17.2165 5.83265C16.5703 4.71157 15.6716 3.75665 14.5917 3.04376C13.5118 2.33087 12.2805 1.87966 10.9957 1.72598C9.20573 1.50784 7.39345 1.87878 5.83317 2.78265C1.84733 5.08432 0.481499 10.181 2.78317 14.1668Z" stroke="#E94057" stroke-width="1.5"/>
<path d="M14.125 17.1448C14.125 17.1448 13.3417 11.6523 11.6667 8.75061C9.99167 5.84895 5.875 2.85645 5.875 2.85645" stroke="#E94057" stroke-width="1.5" stroke-linecap="round"/>
<path d="M18.2197 10.484C13.7106 9.4948 7.54889 13.624 6.31389 17.349M13.6781 2.6748C12.4381 6.35814 6.39473 10.4273 1.90723 9.54397" stroke="#E94057" stroke-width="1.5" stroke-linecap="round"/>
</g>
<defs>
<clipPath id="clip0_776_703">
<rect width="20" height="20" fill="white"/>
</clipPath>
</defs>
</svg>
