<svg width="20" height="20" viewBox="0 0 20 20" fill="none" xmlns="http://www.w3.org/2000/svg">
<g clip-path="url(#clip0_776_726)">
<path d="M5.55566 2.88867H15.5557V3.74978H5.55566V2.88867Z" fill="#E94057"/>
<path d="M16.1111 4.44466H5.47772C5.33594 4.44265 5.19604 4.41195 5.06645 4.3544C4.93687 4.29686 4.82027 4.21366 4.72371 4.10983C4.62715 4.006 4.55262 3.88369 4.50461 3.75027C4.45661 3.61686 4.43612 3.4751 4.44439 3.33355C4.44369 3.05186 4.55002 2.78042 4.74186 2.57414C4.93369 2.36787 5.19672 2.24216 5.47772 2.22244H16.1111C16.2584 2.22244 16.3997 2.16391 16.5039 2.05972C16.6081 1.95553 16.6666 1.81423 16.6666 1.66688C16.6666 1.51954 16.6081 1.37823 16.5039 1.27405C16.3997 1.16986 16.2584 1.11133 16.1111 1.11133H5.47772C4.90193 1.13149 4.35648 1.37449 3.95641 1.78907C3.55634 2.20366 3.33292 2.75741 3.33327 3.33355C3.32771 3.42421 3.32771 3.51512 3.33327 3.60577C3.32792 3.65006 3.32792 3.69482 3.33327 3.73911V16.6669C3.33292 17.243 3.55634 17.7968 3.95641 18.2114C4.35648 18.6259 4.90193 18.8689 5.47772 18.8891H16.1111C16.2584 18.8891 16.3997 18.8306 16.5039 18.7264C16.6081 18.6222 16.6666 18.4809 16.6666 18.3336V5.03911C16.6669 4.88796 16.6097 4.74237 16.5065 4.63194C16.4033 4.52152 16.2619 4.45455 16.1111 4.44466ZM15.5555 17.778H5.47772C5.19672 17.7583 4.93369 17.6326 4.74186 17.4263C4.55002 17.22 4.44369 16.9486 4.44439 16.6669V5.30577C4.76027 5.48003 5.11711 5.56637 5.47772 5.55577H15.5555V17.778Z" fill="#E94057"/>
</g>
<defs>
<clipPath id="clip0_776_726">
<rect width="20" height="20" fill="white"/>
</clipPath>
</defs>
</svg>
