<svg width="20" height="20" viewBox="0 0 20 20" fill="none" xmlns="http://www.w3.org/2000/svg">
<g clip-path="url(#clip0_776_693)">
<path d="M2.91709 6.25033H5.41709M1.97959 8.75033H6.35459M8.33376 8.07532C9.26294 7.19574 10.4256 6.60211 11.683 6.36531C12.9403 6.1285 14.2393 6.25851 15.4248 6.73983C16.6102 7.22115 17.6322 8.03344 18.3686 9.07974C19.105 10.126 19.5248 11.3622 19.5778 12.6405C19.6308 13.9189 19.3148 15.1855 18.6676 16.2892C18.0204 17.3929 17.0692 18.287 15.9277 18.8649C14.7861 19.4427 13.5024 19.6798 12.2297 19.548C10.9571 19.4161 9.74925 18.9208 8.75043 18.1212M4.16709 0.416992C4.44068 0.416992 4.71159 0.470879 4.96435 0.575577C5.21711 0.680274 5.44678 0.833731 5.64023 1.02719C5.83369 1.22064 5.98714 1.45031 6.09184 1.70307C6.19654 1.95583 6.25043 2.22674 6.25043 2.50033C6.25043 3.71699 5.41709 4.88283 5.41709 6.09949V6.16616C5.41709 7.03283 5.69793 7.87449 6.21709 8.56783L6.40376 8.81616C7.13765 9.79471 7.62336 10.9366 7.81929 12.144C8.01523 13.3514 7.91554 14.5882 7.52876 15.7487L6.25043 19.5837H2.08376L0.805426 15.7487C0.418508 14.5881 0.318742 13.3511 0.514677 12.1435C0.710612 10.936 1.19641 9.79398 1.93043 8.81533L2.11709 8.56783C2.63626 7.87449 2.91709 7.03199 2.91709 6.16616V6.09949C2.91709 4.88283 2.08376 3.71616 2.08376 2.50033C2.08376 1.94779 2.30325 1.41789 2.69395 1.02719C3.08465 0.636486 3.61456 0.416992 4.16709 0.416992ZM14.5838 10.8337C14.3627 10.8337 14.1508 10.7459 13.9945 10.5896C13.8382 10.4333 13.7504 10.2213 13.7504 10.0003C13.7504 9.77931 13.8382 9.56735 13.9945 9.41107C14.1508 9.25479 14.3627 9.16699 14.5838 9.16699C14.8048 9.16699 15.0167 9.25479 15.173 9.41107C15.3293 9.56735 15.4171 9.77931 15.4171 10.0003C15.4171 10.2213 15.3293 10.4333 15.173 10.5896C15.0167 10.7459 14.8048 10.8337 14.5838 10.8337ZM12.9171 13.7503C12.6961 13.7503 12.4841 13.6625 12.3278 13.5062C12.1716 13.35 12.0838 13.138 12.0838 12.917C12.0838 12.696 12.1716 12.484 12.3278 12.3277C12.4841 12.1715 12.6961 12.0837 12.9171 12.0837C13.1381 12.0837 13.3501 12.1715 13.5063 12.3277C13.6626 12.484 13.7504 12.696 13.7504 12.917C13.7504 13.138 13.6626 13.35 13.5063 13.5062C13.3501 13.6625 13.1381 13.7503 12.9171 13.7503ZM16.2504 13.7503C16.0294 13.7503 15.8174 13.6625 15.6612 13.5062C15.5049 13.35 15.4171 13.138 15.4171 12.917C15.4171 12.696 15.5049 12.484 15.6612 12.3277C15.8174 12.1715 16.0294 12.0837 16.2504 12.0837C16.4714 12.0837 16.6834 12.1715 16.8397 12.3277C16.996 12.484 17.0838 12.696 17.0838 12.917C17.0838 13.138 16.996 13.35 16.8397 13.5062C16.6834 13.6625 16.4714 13.7503 16.2504 13.7503Z" stroke="#E94057"/>
</g>
<defs>
<clipPath id="clip0_776_693">
<rect width="20" height="20" fill="white"/>
</clipPath>
</defs>
</svg>
