<svg width="20" height="20" viewBox="0 0 20 20" fill="none" xmlns="http://www.w3.org/2000/svg">
<g clip-path="url(#clip0_776_738)">
<path d="M10.0003 12.5003C11.1831 12.5003 12.1431 11.5475 12.1431 10.3717C12.1431 9.19602 11.1831 8.24316 10.0003 8.24316C8.81742 8.24316 7.85742 9.19602 7.85742 10.3717C7.85742 11.5475 8.81742 12.5003 10.0003 12.5003Z" stroke="#E94057" stroke-linecap="round" stroke-linejoin="round"/>
<path d="M19.0998 7.62889C18.796 6.70492 18.138 5.93927 17.2702 5.50001C16.4024 5.06076 15.3957 4.9838 14.4712 5.28603C14.1413 5.37955 13.8279 5.52416 13.5427 5.71461C13.7001 5.16593 13.7278 4.5882 13.6239 4.02695C13.5199 3.4657 13.2869 2.93628 12.9434 2.48041C12.5999 2.02453 12.1553 1.65467 11.6444 1.39997C11.1336 1.14527 10.5706 1.0127 9.99982 1.0127C9.42902 1.0127 8.86602 1.14527 8.3552 1.39997C7.84437 1.65467 7.39969 2.02453 7.05619 2.48041C6.71269 2.93628 6.47977 3.4657 6.37578 4.02695C6.2718 4.5882 6.29959 5.16593 6.45696 5.71461C6.17261 5.51914 5.85925 5.36969 5.52839 5.27175C5.07158 5.1226 4.58986 5.0649 4.11075 5.10192C3.63163 5.13894 3.1645 5.26997 2.73603 5.48753C2.30755 5.70508 1.92612 6.0049 1.61351 6.36986C1.30091 6.73483 1.06325 7.15779 0.914104 7.61461C0.76496 8.07142 0.707252 8.55313 0.744275 9.03225C0.781299 9.51136 0.912328 9.97849 1.12988 10.407C1.34744 10.8354 1.64726 11.2169 2.01222 11.5295C2.37719 11.8421 2.80015 12.0797 3.25696 12.2289C3.59156 12.3277 3.93698 12.3853 4.28553 12.4003C4.01928 12.6139 3.77948 12.8585 3.57125 13.1289C3.28682 13.5161 3.08213 13.956 2.96905 14.4229C2.85596 14.8899 2.83674 15.3746 2.91249 15.8491C2.98824 16.3235 3.15746 16.7782 3.41033 17.1867C3.66319 17.5952 3.99467 17.9495 4.38553 18.2289C5.17537 18.7997 6.15849 19.0358 7.1214 18.886C8.08431 18.7362 8.94925 18.2126 9.52839 17.4289C9.72935 17.1488 9.88818 16.8408 9.99982 16.5146C10.1155 16.8417 10.2798 17.1489 10.4855 17.4289C10.8442 17.9149 11.3164 18.3056 11.8609 18.567C12.4054 18.8285 13.0056 18.9526 13.6092 18.9287C14.2127 18.9047 14.8012 18.7334 15.3232 18.4296C15.8453 18.1258 16.2851 17.6989 16.6041 17.186C16.9847 16.5707 17.1728 15.8557 17.144 15.1328C17.1152 14.4098 16.871 13.712 16.4427 13.1289C16.2344 12.8585 15.9946 12.6139 15.7284 12.4003C16.0721 12.3841 16.4127 12.3266 16.7427 12.2289C17.2004 12.083 17.6247 11.848 17.9913 11.5374C18.3578 11.2269 18.6593 10.8469 18.8784 10.4194C19.0975 9.99181 19.2298 9.52515 19.2678 9.04624C19.3058 8.56733 19.2487 8.08564 19.0998 7.62889Z" stroke="#E94057" stroke-linecap="round" stroke-linejoin="round"/>
</g>
<defs>
<clipPath id="clip0_776_738">
<rect width="20" height="20" fill="white"/>
</clipPath>
</defs>
</svg>
