<svg width="21" height="20" viewBox="0 0 21 20" fill="none" xmlns="http://www.w3.org/2000/svg">
<g clip-path="url(#clip0_776_721)">
<path fill-rule="evenodd" clip-rule="evenodd" d="M15.2246 13.3336C16.1946 9.71056 13.8886 5.95656 10.0896 4.93856C5.82261 3.79456 -0.225394 6.76156 1.04361 10.3496C1.42661 11.4336 2.17761 11.6906 3.72561 11.7126L3.83361 11.7146C4.93361 11.7276 5.30461 11.8146 5.51161 12.1506C5.72561 12.4986 5.72761 12.9066 5.56561 13.9386C5.49861 14.3606 5.47761 14.5076 5.45261 14.7326C5.30761 16.0326 5.51961 17.0066 6.34261 17.8926C8.92661 20.6766 14.1306 17.4136 15.2246 13.3336ZM1.98561 10.0166C1.07761 7.44656 6.20261 4.93256 9.83061 5.90456C13.1076 6.78256 15.0826 9.99756 14.2586 13.0746C13.3346 16.5206 8.97161 19.2566 7.07561 17.2146C6.48161 16.5746 6.33061 15.8816 6.44561 14.8446C6.46961 14.6396 6.48961 14.5006 6.55361 14.0946C6.75361 12.8196 6.75061 12.2586 6.36361 11.6276C5.89861 10.8716 5.30461 10.7336 3.84661 10.7156L3.73961 10.7136C2.58061 10.6976 2.17761 10.5596 1.98561 10.0166Z" fill="#E94057"/>
<path d="M5.25 9.49986C4.91848 9.49986 4.60054 9.36817 4.36612 9.13375C4.1317 8.89933 4 8.58138 4 8.24986C4 7.91834 4.1317 7.6004 4.36612 7.36598C4.60054 7.13156 4.91848 6.99986 5.25 6.99986C5.58152 6.99986 5.89946 7.13156 6.13388 7.36598C6.3683 7.6004 6.5 7.91834 6.5 8.24986C6.5 8.58138 6.3683 8.89933 6.13388 9.13375C5.89946 9.36817 5.58152 9.49986 5.25 9.49986ZM9.25 9.49986C8.91848 9.49986 8.60054 9.36817 8.36612 9.13375C8.1317 8.89933 8 8.58138 8 8.24986C8 7.91834 8.1317 7.6004 8.36612 7.36598C8.60054 7.13156 8.91848 6.99986 9.25 6.99986C9.58152 6.99986 9.89946 7.13156 10.1339 7.36598C10.3683 7.6004 10.5 7.91834 10.5 8.24986C10.5 8.58138 10.3683 8.89933 10.1339 9.13375C9.89946 9.36817 9.58152 9.49986 9.25 9.49986ZM11.75 12.4999C11.4185 12.4999 11.1005 12.3682 10.8661 12.1337C10.6317 11.8993 10.5 11.5814 10.5 11.2499C10.5 10.9183 10.6317 10.6004 10.8661 10.366C11.1005 10.1316 11.4185 9.99986 11.75 9.99986C12.0815 9.99986 12.3995 10.1316 12.6339 10.366C12.8683 10.6004 13 10.9183 13 11.2499C13 11.5814 12.8683 11.8993 12.6339 12.1337C12.3995 12.3682 12.0815 12.4999 11.75 12.4999ZM10.25 15.9999C9.91848 15.9999 9.60054 15.8682 9.36612 15.6337C9.1317 15.3993 9 15.0814 9 14.7499C9 14.4183 9.1317 14.1004 9.36612 13.866C9.60054 13.6316 9.91848 13.4999 10.25 13.4999C10.5815 13.4999 10.8995 13.6316 11.1339 13.866C11.3683 14.1004 11.5 14.4183 11.5 14.7499C11.5 15.0814 11.3683 15.3993 11.1339 15.6337C10.8995 15.8682 10.5815 15.9999 10.25 15.9999ZM13.87 3.60486C13.9886 3.54134 14.1187 3.50239 14.2527 3.49034C14.3867 3.4783 14.5217 3.49341 14.6497 3.53477C14.7777 3.57613 14.8961 3.64289 14.9977 3.73105C15.0993 3.81921 15.182 3.92697 15.241 4.04786L19.334 12.4479C19.4023 12.5989 19.4106 12.7702 19.3571 12.9271C19.3037 13.0839 19.1925 13.2146 19.0461 13.2924C18.8998 13.3702 18.7293 13.3894 18.5694 13.346C18.4094 13.3026 18.272 13.1999 18.185 13.0589L13.477 4.98886C13.4093 4.87277 13.3658 4.74421 13.349 4.61089C13.3322 4.47756 13.3425 4.34222 13.3793 4.21298C13.4161 4.08373 13.4786 3.96325 13.5631 3.85876C13.6476 3.75426 13.7523 3.6679 13.871 3.60486" fill="#E94057"/>
<path fill-rule="evenodd" clip-rule="evenodd" d="M12.0374 3.48381C12.5234 4.39881 13.3424 4.65481 14.1344 4.23381C14.9254 3.81381 15.1724 2.99081 14.6854 2.07581C14.1294 1.02781 12.9374 0.0778114 12.1474 0.496811C11.3574 0.916811 11.4794 2.43581 12.0374 3.48381ZM12.9194 3.01381C12.7424 2.65825 12.6338 2.27253 12.5994 1.87681C12.5845 1.71138 12.5906 1.54473 12.6174 1.38081L12.6354 1.38981C12.6854 1.41381 12.8404 1.48581 13.0384 1.64381C13.3404 1.88481 13.6404 2.23981 13.8024 2.54481C14.0314 2.97481 13.9664 3.19081 13.6644 3.35181C13.3644 3.51181 13.1484 3.44381 12.9194 3.01481" fill="#E94057"/>
</g>
<defs>
<clipPath id="clip0_776_721">
<rect width="20" height="20" fill="white" transform="translate(0.5)"/>
</clipPath>
</defs>
</svg>
