<svg width="21" height="20" viewBox="0 0 21 20" fill="none" xmlns="http://www.w3.org/2000/svg">
<path d="M7.99453 1.77488C7.964 1.6109 7.87089 1.46522 7.73489 1.36865C7.59889 1.27207 7.43067 1.23217 7.26578 1.25738C7.11844 1.27995 6.9845 1.35578 6.88935 1.47052C6.7942 1.58525 6.74445 1.73091 6.74953 1.87988C5.23453 2.25363 4.27203 3.00488 3.70328 3.92988C3.13328 4.85488 2.99953 5.88363 2.99953 6.71488V7.10988L2.10703 8.34613C1.96063 8.5488 1.85624 8.7787 1.80001 9.0223C1.74377 9.26591 1.73682 9.5183 1.77956 9.76463C1.8223 10.011 1.91388 10.2463 2.0489 10.4567C2.18392 10.6671 2.35966 10.8484 2.56578 10.9899L9.97828 16.0786C11.3322 17.008 12.936 17.5053 14.5783 17.5049H16.452C17.1938 17.5042 17.9049 17.2093 18.4294 16.6848C18.9539 16.1603 19.2489 15.4491 19.2495 14.7074C19.2495 13.1149 17.912 12.0174 16.727 11.4949C16.3258 11.3174 15.987 11.0749 15.7645 10.7474L13.142 6.23488C13.298 6.20257 13.4352 6.11038 13.524 5.97811C13.6128 5.84583 13.6462 5.68401 13.617 5.52738C13.5868 5.36325 13.4937 5.21738 13.3577 5.12075C13.2216 5.02412 13.0532 4.98435 12.8883 5.00988C10.5508 5.37988 8.37578 3.87988 7.99453 1.77488ZM11.7295 6.29113L14.6945 11.3936L14.7145 11.4249C15.1083 12.0186 15.6758 12.3961 16.222 12.6374C16.8433 12.9124 17.3583 13.3011 17.672 13.7499H14.5495C13.6637 13.7494 12.7989 13.48 12.0695 12.9774L10.077 11.6061L11.072 11.0986C11.2229 11.0215 11.3565 10.9145 11.4648 10.7841C11.573 10.6537 11.6536 10.5026 11.7017 10.3401C11.7497 10.1776 11.7642 10.007 11.7443 9.83871C11.7244 9.67042 11.6705 9.50793 11.5858 9.36113L10.8745 8.12488C10.7142 7.84781 10.4537 7.64279 10.1467 7.55209C9.83976 7.46139 9.50968 7.49192 9.22453 7.63738L6.39953 9.07488L5.20203 8.24988L6.64578 7.58988C6.80404 7.51745 6.94543 7.41276 7.06089 7.28252C7.17635 7.15229 7.26334 6.99938 7.31629 6.83358C7.36925 6.66778 7.38699 6.49275 7.36839 6.3197C7.34979 6.14665 7.29526 5.97939 7.20828 5.82863L5.88703 3.53738C6.26853 3.33107 6.67649 3.17798 7.09953 3.08238C7.89078 4.88863 9.70328 6.12113 11.7295 6.29113ZM8.90453 10.7999L7.57078 9.88113L9.79078 8.74988L10.5033 9.98488L8.90453 10.7999ZM4.76703 4.58488C4.81287 4.50988 4.8637 4.43613 4.91953 4.36363L6.12453 6.45363L4.24953 7.31238V6.71488C4.24953 5.99988 4.36703 5.23488 4.76703 4.58488ZM3.12078 9.07738L3.47828 8.58238L11.3608 14.0074C12.2989 14.653 13.4108 14.9986 14.5495 14.9986H17.972C17.9038 15.3519 17.7149 15.6704 17.4376 15.8996C17.1602 16.1288 16.8118 16.2544 16.452 16.2549H14.577C13.1879 16.2552 11.8312 15.8346 10.6858 15.0486L3.27453 9.95863C3.20586 9.91144 3.14732 9.85098 3.10235 9.78083C3.05738 9.71067 3.0269 9.63223 3.01269 9.55013C2.99848 9.46802 3.00083 9.3839 3.01961 9.30271C3.03839 9.22152 3.07321 9.14491 3.12203 9.07738" fill="#E94057"/>
</svg>
