<svg width="21" height="20" viewBox="0 0 21 20" fill="none" xmlns="http://www.w3.org/2000/svg">
<path fill-rule="evenodd" clip-rule="evenodd" d="M11.9369 12.0421C12.1386 11.9429 12.2236 11.695 12.1269 11.4879C11.7694 10.7221 11.1444 10.2004 10.384 9.86211C9.56731 9.49877 9.15481 9.13961 8.94731 8.87544C8.75398 8.62919 8.6969 8.41419 8.68648 8.21877C8.66315 7.77294 8.85398 7.34961 9.08315 6.86461L9.16773 6.68461C9.50815 5.94794 9.19815 5.07002 8.47898 4.72377C7.76106 4.37794 6.90315 4.69086 6.56315 5.42669C6.54398 5.46725 6.52453 5.50752 6.50481 5.54752C6.29398 5.97627 5.74315 7.09752 5.81023 8.37669C5.84932 9.14059 6.10306 9.87799 6.54231 10.5042L4.11898 11.2709C4.01533 11.3051 3.92925 11.3786 3.87923 11.4756C3.8292 11.5726 3.81924 11.6853 3.85148 11.7896C3.86614 11.8412 3.89095 11.8893 3.92446 11.9312C3.95796 11.9731 3.99948 12.0078 4.04659 12.0334C4.09371 12.059 4.14546 12.075 4.19881 12.0803C4.25216 12.0857 4.30605 12.0803 4.35731 12.0646L7.35731 11.1159C7.42358 11.0942 7.48329 11.0562 7.53086 11.0053C7.57844 10.9543 7.61234 10.8922 7.6294 10.8246C7.64712 10.7565 7.64748 10.685 7.63044 10.6168C7.61341 10.5485 7.57953 10.4856 7.5319 10.4338C7.46234 10.3578 7.39563 10.2793 7.3319 10.1984C6.8519 9.58794 6.65023 8.94419 6.61815 8.33169C6.56356 7.28544 7.02398 6.33586 7.23231 5.91086L7.2344 5.90669C7.25648 5.86211 7.27773 5.81877 7.2944 5.78252C7.32873 5.70654 7.37789 5.63819 7.439 5.58146C7.50011 5.52473 7.57192 5.48078 7.65024 5.45218C7.72856 5.42357 7.8118 5.4109 7.89508 5.41489C7.97836 5.41889 8.06001 5.43947 8.13523 5.47544C8.28711 5.55009 8.40371 5.68127 8.46002 5.84086C8.51633 6.00045 8.50788 6.17575 8.43648 6.32919L8.33981 6.53419C8.12856 6.98127 7.84273 7.58502 7.87856 8.26336C7.89731 8.62377 8.0119 9.00752 8.31731 9.39669C8.62898 9.79336 9.16231 10.2238 10.0619 10.6242C10.6911 10.9042 11.144 11.3042 11.3973 11.8471C11.4193 11.8959 11.4509 11.9397 11.4902 11.976C11.5294 12.0124 11.5756 12.0404 11.6259 12.0586C11.6762 12.0768 11.7297 12.0847 11.7831 12.0819C11.8365 12.079 11.8888 12.0655 11.9369 12.0421ZM14.6669 10.4163C15.1089 10.4163 15.5328 10.2407 15.8454 9.92812C16.158 9.61556 16.3336 9.19163 16.3336 8.74961C16.3336 8.30758 16.158 7.88366 15.8454 7.5711C15.5328 7.25853 15.1089 7.08294 14.6669 7.08294C14.2249 7.08294 13.8009 7.25853 13.4884 7.5711C13.1758 7.88366 13.0002 8.30758 13.0002 8.74961C13.0002 9.19163 13.1758 9.61556 13.4884 9.92812C13.8009 10.2407 14.2249 10.4163 14.6669 10.4163ZM14.6669 11.2496C15.3299 11.2496 15.9658 10.9862 16.4347 10.5174C16.9035 10.0485 17.1669 9.41265 17.1669 8.74961C17.1669 8.08657 16.9035 7.45068 16.4347 6.98184C15.9658 6.513 15.3299 6.24961 14.6669 6.24961C14.0039 6.24961 13.368 6.513 12.8991 6.98184C12.4303 7.45068 12.1669 8.08657 12.1669 8.74961C12.1669 9.41265 12.4303 10.0485 12.8991 10.5174C13.368 10.9862 14.0039 11.2496 14.6669 11.2496ZM2.2594 15.5742C2.3311 15.4873 2.43374 15.4317 2.54567 15.419C2.65761 15.4063 2.77008 15.4376 2.8594 15.5063L3.53565 16.0288C3.71882 16.1695 3.94554 16.2416 4.17636 16.2325C4.40719 16.2233 4.6275 16.1336 4.79898 15.9788L4.83648 15.945C5.16769 15.6464 5.59782 15.4811 6.04377 15.4811C6.48973 15.4811 6.91986 15.6464 7.25106 15.945C7.42229 16.0994 7.64467 16.1849 7.87523 16.1849C8.10579 16.1849 8.32816 16.0994 8.4994 15.945C8.8306 15.6464 9.26073 15.4811 9.70669 15.4811C10.1526 15.4811 10.5828 15.6464 10.914 15.945C11.2623 16.2617 11.8156 16.2604 12.1702 15.9379C12.8377 15.33 13.8869 15.3171 14.5611 15.9304L14.5902 15.9571C14.9252 16.2621 15.4477 16.2529 15.7715 15.9375C16.4015 15.3229 17.4102 15.2854 18.0869 15.8504L18.6844 16.35C18.8636 16.5 18.8844 16.7625 18.7306 16.9375C18.6556 17.0216 18.5509 17.0733 18.4385 17.0817C18.3261 17.0901 18.2148 17.0545 18.1281 16.9825L17.5306 16.4834C17.3665 16.3473 17.1581 16.2766 16.9451 16.2846C16.7321 16.2926 16.5295 16.3788 16.3761 16.5267C15.7261 17.16 14.679 17.1775 14.0073 16.5663L13.9781 16.54C13.6386 16.2309 13.099 16.2321 12.7531 16.5471C12.0769 17.1625 11.014 17.1759 10.3306 16.5542C10.1594 16.3998 9.93704 16.3143 9.70648 16.3143C9.47592 16.3143 9.25354 16.3998 9.08231 16.5542C8.75111 16.8528 8.32097 17.0181 7.87502 17.0181C7.42907 17.0181 6.99894 16.8528 6.66773 16.5542C6.4965 16.3998 6.27412 16.3143 6.04356 16.3143C5.813 16.3143 5.59063 16.3998 5.4194 16.5542L5.3819 16.5879C5.05918 16.8791 4.64462 17.0479 4.21032 17.065C3.77602 17.0822 3.34946 16.9465 3.00481 16.6817L2.32898 16.1596C2.28515 16.1263 2.24847 16.0846 2.22113 16.0368C2.19379 15.9891 2.17635 15.9363 2.16986 15.8817C2.16336 15.827 2.16794 15.7716 2.18333 15.7188C2.19871 15.666 2.22458 15.6168 2.2594 15.5742ZM2.2594 13.0742C2.3311 12.9873 2.43374 12.9317 2.54567 12.919C2.65761 12.9063 2.77008 12.9376 2.8594 13.0063L3.53565 13.5288C3.71882 13.6695 3.94554 13.7416 4.17636 13.7325C4.40719 13.7233 4.6275 13.6336 4.79898 13.4788L4.83648 13.445C5.16769 13.1464 5.59782 12.9811 6.04377 12.9811C6.48973 12.9811 6.91986 13.1464 7.25106 13.445C7.42229 13.5994 7.64467 13.6849 7.87523 13.6849C8.10579 13.6849 8.32816 13.5994 8.4994 13.445C8.8306 13.1464 9.26073 12.9811 9.70669 12.9811C10.1526 12.9811 10.5828 13.1464 10.914 13.445C11.2623 13.7617 11.8156 13.7604 12.1702 13.4379C12.8377 12.83 13.8869 12.8171 14.5611 13.4304L14.5902 13.4571C14.9252 13.7621 15.4477 13.7529 15.7715 13.4375C16.4015 12.8229 17.4102 12.7854 18.0869 13.3504L18.6844 13.85C18.8636 14 18.8844 14.2625 18.7306 14.4375C18.6556 14.5216 18.5509 14.5733 18.4385 14.5817C18.3261 14.5901 18.2148 14.5545 18.1281 14.4825L17.5306 13.9834C17.3665 13.8473 17.1581 13.7766 16.9451 13.7846C16.7321 13.7926 16.5295 13.8788 16.3761 14.0267C15.7261 14.66 14.679 14.6775 14.0073 14.0663L13.9781 14.04C13.6386 13.7309 13.099 13.7321 12.7531 14.0471C12.0769 14.6625 11.014 14.6759 10.3306 14.0542C10.1594 13.8998 9.93704 13.8143 9.70648 13.8143C9.47592 13.8143 9.25354 13.8998 9.08231 14.0542C8.75111 14.3528 8.32097 14.5181 7.87502 14.5181C7.42907 14.5181 6.99894 14.3528 6.66773 14.0542C6.4965 13.8998 6.27412 13.8143 6.04356 13.8143C5.813 13.8143 5.59063 13.8998 5.4194 14.0542L5.3819 14.0879C5.05918 14.3791 4.64462 14.5479 4.21032 14.565C3.77602 14.5822 3.34946 14.4465 3.00481 14.1817L2.32898 13.6596C2.28515 13.6263 2.24847 13.5846 2.22113 13.5368C2.19379 13.4891 2.17635 13.4363 2.16986 13.3817C2.16336 13.327 2.16794 13.2716 2.18333 13.2188C2.19871 13.166 2.22458 13.1168 2.2594 13.0742Z" fill="#E94057"/>
</svg>
