<svg width="20" height="20" viewBox="0 0 20 20" fill="none" xmlns="http://www.w3.org/2000/svg">
<path d="M4.375 2.5C3.34688 2.5 2.5 3.34688 2.5 4.375C2.5 5.40312 3.34688 6.25 4.375 6.25C5.40312 6.25 6.25 5.40312 6.25 4.375C6.25 3.34688 5.40312 2.5 4.375 2.5ZM11.8362 3.06625C11.6403 3.06976 11.4446 3.08311 11.25 3.10625C9.70687 3.28687 8.26687 4.0775 7.16812 5.17625C6.39625 5.945 5.75687 7.05125 5.54688 9.10187C5.53932 9.12108 5.53285 9.14069 5.5275 9.16062V9.18C5.51181 9.21162 5.49864 9.24443 5.48813 9.27813C5.48563 9.2925 5.49063 9.3 5.48813 9.31687V9.395C5.49394 9.47595 5.51382 9.55526 5.54688 9.62937C5.57813 10.1912 5.65687 10.765 5.85938 11.3094H5.84C5.84937 11.3631 5.91312 11.6312 5.91812 11.895C5.92062 12.0931 5.84937 12.2737 5.84 12.325C5.45875 12.7031 5.0025 13.0987 4.57063 13.4381C4.13813 13.7775 3.76437 14.0706 3.49562 14.3369H3.47688C3.31623 14.5061 3.1986 14.7114 3.13388 14.9356C3.06916 15.1598 3.05926 15.3962 3.105 15.625C3.2 16.0625 3.45125 16.4406 3.78812 16.7775C4.12312 17.1119 4.50375 17.3606 4.94063 17.4606C5.37813 17.5606 5.9075 17.4319 6.24937 17.09C6.52312 16.8162 6.78687 16.4306 7.12812 15.9962C7.47 15.5612 7.85812 15.09 8.24125 14.7069C8.1975 14.7506 8.38813 14.6487 8.6325 14.6487C8.83 14.6487 8.99375 14.6675 9.12 14.6875C9.1525 14.6925 9.21812 14.7044 9.2375 14.7069C9.78187 14.9094 10.3563 14.9856 10.9175 15.0194C10.9244 15.0194 10.93 15.0394 10.9369 15.0394C10.9806 15.0512 11.0275 15.0563 11.0738 15.0581C11.0927 15.0659 11.1121 15.0725 11.1319 15.0781H11.25C11.2894 15.0756 11.3281 15.0681 11.3675 15.0587C11.3919 15.0562 11.4013 15.0413 11.4256 15.0388H11.4456C13.3275 14.8825 14.5894 14.2013 15.3906 13.3981C16.4894 12.3 17.28 10.8594 17.4612 9.31687C17.6419 7.77312 17.1606 6.12563 15.8006 4.76562C14.6119 3.57688 13.2031 3.05688 11.8362 3.06625ZM4.375 3.75C4.72688 3.75 5 4.02375 5 4.375C5 4.72688 4.72625 5 4.375 5C4.02312 5 3.75 4.72625 3.75 4.375C3.75 4.02312 4.02375 3.75 4.375 3.75ZM11.8362 4.31625C12.8906 4.29688 13.9475 4.67063 14.9219 5.64438C16.0375 6.7575 16.3531 7.97563 16.2112 9.17938C16.0694 10.3831 15.4369 11.5944 14.5113 12.5194C13.8894 13.1419 12.9863 13.6281 11.4062 13.7694L6.79688 9.16C6.98 7.3975 7.41438 6.72625 8.06625 6.07437C8.99125 5.14937 10.1806 4.49687 11.3869 4.35562C11.5381 4.33812 11.685 4.31875 11.8362 4.31625ZM7.08938 11.25L9.31562 13.4569C9.08984 13.4176 8.86105 13.3981 8.63187 13.3987C8.25125 13.4006 7.76813 13.4231 7.36313 13.8281C6.93251 14.2662 6.52806 14.7293 6.15188 15.215C5.8025 15.6587 5.4925 16.0694 5.35125 16.2106C5.2775 16.2844 5.31375 16.2719 5.21375 16.25C5.11375 16.2281 4.91125 16.1038 4.68688 15.8788C4.46688 15.6594 4.3575 15.4562 4.335 15.3519C4.31312 15.2469 4.29125 15.2756 4.355 15.2144C4.48625 15.0831 4.88437 14.7656 5.33125 14.4144C5.77812 14.0625 6.28812 13.6519 6.7375 13.2031C7.17 12.7713 7.175 12.2706 7.1675 11.875C7.1625 11.575 7.11625 11.3988 7.08938 11.25Z" fill="#E94057"/>
</svg>
