<svg width="20" height="20" viewBox="0 0 20 20" fill="none" xmlns="http://www.w3.org/2000/svg">
<path d="M6.20456 13.7945L4.01872 12.6079L4.50956 12.117L6.44872 12.4087L9.90706 8.95037L3.77539 5.6337L4.39706 4.99536L11.9387 6.9087L14.3921 4.4487C14.5532 4.28759 14.7443 4.20703 14.9654 4.20703C15.1865 4.20703 15.3773 4.28759 15.5379 4.4487C15.6984 4.60981 15.779 4.8037 15.7796 5.03036C15.7801 5.25703 15.6996 5.45064 15.5379 5.6112L13.1054 8.07536L15.0029 15.6012L14.3812 16.2395L11.0479 10.1079L7.62122 13.5337L7.89706 15.4895L7.39039 15.9954L6.20456 13.7945Z" fill="#E94057"/>
</svg>
