<svg width="20" height="20" viewBox="0 0 20 20" fill="none" xmlns="http://www.w3.org/2000/svg">
<path d="M13.333 10.8337L9.87468 7.45866C9.44412 7.04199 9.07967 6.58033 8.78134 6.07366C8.48301 5.56699 8.33356 5.01477 8.33301 4.41699C8.33301 3.65311 8.60051 3.00394 9.13551 2.46949C9.67051 1.93505 10.3197 1.66755 11.083 1.66699C11.5275 1.66699 11.9441 1.76088 12.333 1.94866C12.7219 2.13644 13.0552 2.38977 13.333 2.70866C13.6108 2.38922 13.9441 2.13561 14.333 1.94783C14.7219 1.76005 15.1386 1.66644 15.583 1.66699C16.3469 1.66699 16.9963 1.93449 17.5313 2.46949C18.0663 3.00449 18.3336 3.65366 18.333 4.41699C18.333 5.01422 18.1872 5.56644 17.8955 6.07366C17.6038 6.58088 17.2427 7.04255 16.8122 7.45866L13.333 10.8337ZM13.333 8.50033L15.6038 6.27116C15.8677 6.00727 16.1108 5.72588 16.333 5.42699C16.5552 5.12811 16.6663 4.79144 16.6663 4.41699C16.6663 4.11144 16.5622 3.85449 16.3538 3.64616C16.1455 3.43783 15.8886 3.33366 15.583 3.33366C15.3886 3.33366 15.2044 3.37172 15.0305 3.44783C14.8566 3.52394 14.7075 3.63866 14.583 3.79199L13.333 5.29199L12.083 3.79199C11.958 3.63922 11.8088 3.52449 11.6355 3.44783C11.4622 3.37116 11.278 3.33311 11.083 3.33366C10.7775 3.33366 10.5205 3.43783 10.3122 3.64616C10.1038 3.85449 9.99967 4.11144 9.99967 4.41699C9.99967 4.79199 10.1108 5.12894 10.333 5.42783C10.5552 5.72672 10.7983 6.00783 11.0622 6.27116L13.333 8.50033ZM5.83301 15.417L11.6247 17.0003L16.583 15.4587C16.5136 15.3337 16.4127 15.2259 16.2805 15.1353C16.1483 15.0448 15.9991 14.9998 15.833 15.0003H11.6247C11.2497 15.0003 10.9511 14.9864 10.7288 14.9587C10.5066 14.9309 10.2775 14.8753 10.0413 14.792L8.10384 14.1462L8.56217 12.5212L10.2497 13.0837C10.4858 13.1531 10.7636 13.2087 11.083 13.2503C11.4025 13.292 11.8747 13.3198 12.4997 13.3337C12.4997 13.1809 12.4547 13.0351 12.3647 12.8962C12.2747 12.7573 12.1669 12.667 12.0413 12.6253L7.16634 10.8337H5.83301V15.417ZM0.833008 18.3337V9.16699H7.16634C7.26356 9.16699 7.36079 9.17755 7.45801 9.19866C7.55523 9.21977 7.64551 9.24394 7.72884 9.27116L12.6247 11.0837C13.083 11.2503 13.4547 11.542 13.7397 11.9587C14.0247 12.3753 14.1669 12.8337 14.1663 13.3337H15.833C16.5275 13.3337 17.1177 13.5628 17.6038 14.0212C18.09 14.4795 18.333 15.0837 18.333 15.8337V16.667L11.6663 18.7503L5.83301 17.1253V18.3337H0.833008ZM2.49967 16.667H4.16634V10.8337H2.49967V16.667Z" fill="#E94057"/>
</svg>
