<svg width="30" height="30" viewBox="0 0 30 30" fill="none" xmlns="http://www.w3.org/2000/svg">
<path d="M5.65402 23.3203C5.65402 23.8389 6.07297 24.2578 6.59152 24.2578H23.4079C23.9265 24.2578 24.3454 23.8389 24.3454 23.3203V16.4941C24.3454 11.332 20.1618 7.14844 14.9997 7.14844C9.83762 7.14844 5.65402 11.332 5.65402 16.4941V23.3203ZM7.7634 16.4941C7.7634 12.498 11.0036 9.25781 14.9997 9.25781C18.9958 9.25781 22.2361 12.498 22.2361 16.4941V22.1484H11.8357V17.1387C11.8357 16.9775 11.7038 16.8457 11.5427 16.8457H10.2536C10.0925 16.8457 9.96066 16.9775 9.96066 17.1387V22.1484H7.7634V16.4941ZM6.35422 9.09668L7.51438 7.93652C7.6052 7.8457 7.6052 7.69629 7.51438 7.60547L5.52512 5.61621C5.48107 5.57259 5.42158 5.54812 5.35959 5.54812C5.2976 5.54812 5.23811 5.57259 5.19406 5.61621L4.03391 6.77637C3.99029 6.82042 3.96582 6.8799 3.96582 6.94189C3.96582 7.00389 3.99029 7.06337 4.03391 7.10742L6.02316 9.09668C6.11398 9.1875 6.26047 9.1875 6.35422 9.09668ZM25.9714 6.77637L24.8113 5.61621C24.7672 5.57259 24.7077 5.54812 24.6457 5.54812C24.5837 5.54812 24.5242 5.57259 24.4802 5.61621L22.4909 7.60547C22.4473 7.64952 22.4229 7.709 22.4229 7.771C22.4229 7.83299 22.4473 7.89247 22.4909 7.93652L23.6511 9.09668C23.7419 9.1875 23.8913 9.1875 23.9821 9.09668L25.9714 7.10742C26.0622 7.01367 26.0622 6.86719 25.9714 6.77637ZM24.3747 26.1328H5.62473C5.10617 26.1328 4.68723 26.5518 4.68723 27.0703V27.7734C4.68723 27.9023 4.7927 28.0078 4.9216 28.0078H25.0779C25.2068 28.0078 25.3122 27.9023 25.3122 27.7734V27.0703C25.3122 26.5518 24.8933 26.1328 24.3747 26.1328ZM14.1794 5.27344H15.82C15.9489 5.27344 16.0544 5.16797 16.0544 5.03906V2.22656C16.0544 2.09766 15.9489 1.99219 15.82 1.99219H14.1794C14.0505 1.99219 13.945 2.09766 13.945 2.22656V5.03906C13.945 5.16797 14.0505 5.27344 14.1794 5.27344Z" fill="white"/>
</svg>
