<svg width="30" height="30" viewBox="0 0 30 30" fill="none" xmlns="http://www.w3.org/2000/svg">
<path d="M24.375 6.5625H21.1266L19.5293 4.16719C19.4437 4.03893 19.3278 3.93375 19.1919 3.86098C19.056 3.78821 18.9042 3.75009 18.75 3.75H11.25C11.0958 3.75009 10.944 3.78821 10.8081 3.86098C10.6722 3.93375 10.5563 4.03893 10.4707 4.16719L8.87227 6.5625H5.625C4.87908 6.5625 4.16371 6.85882 3.63626 7.38626C3.10882 7.91371 2.8125 8.62908 2.8125 9.375V22.5C2.8125 23.2459 3.10882 23.9613 3.63626 24.4887C4.16371 25.0162 4.87908 25.3125 5.625 25.3125H24.375C25.1209 25.3125 25.8363 25.0162 26.3637 24.4887C26.8912 23.9613 27.1875 23.2459 27.1875 22.5V9.375C27.1875 8.62908 26.8912 7.91371 26.3637 7.38626C25.8363 6.85882 25.1209 6.5625 24.375 6.5625ZM25.3125 22.5C25.3125 22.7486 25.2137 22.9871 25.0379 23.1629C24.8621 23.3387 24.6236 23.4375 24.375 23.4375H5.625C5.37636 23.4375 5.1379 23.3387 4.96209 23.1629C4.78627 22.9871 4.6875 22.7486 4.6875 22.5V9.375C4.6875 9.12636 4.78627 8.8879 4.96209 8.71209C5.1379 8.53627 5.37636 8.4375 5.625 8.4375H9.375C9.52938 8.4376 9.6814 8.39957 9.81756 8.32679C9.95371 8.25401 10.0698 8.14874 10.1555 8.02031L11.7516 5.625H18.2473L19.8445 8.02031C19.9302 8.14874 20.0463 8.25401 20.1824 8.32679C20.3186 8.39957 20.4706 8.4376 20.625 8.4375H24.375C24.6236 8.4375 24.8621 8.53627 25.0379 8.71209C25.2137 8.8879 25.3125 9.12636 25.3125 9.375V22.5ZM15 10.3125C13.9802 10.3125 12.9833 10.6149 12.1353 11.1815C11.2874 11.7481 10.6265 12.5534 10.2362 13.4955C9.84598 14.4377 9.74387 15.4745 9.94283 16.4747C10.1418 17.4749 10.6329 18.3937 11.354 19.1148C12.0751 19.8359 12.9939 20.327 13.9941 20.5259C14.9943 20.7249 16.031 20.6228 16.9732 20.2325C17.9154 19.8422 18.7207 19.1813 19.2873 18.3334C19.8538 17.4855 20.1562 16.4886 20.1562 15.4688C20.1547 14.1017 19.611 12.7911 18.6443 11.8244C17.6777 10.8578 16.367 10.3141 15 10.3125ZM15 18.75C14.351 18.75 13.7166 18.5576 13.177 18.197C12.6374 17.8365 12.2169 17.324 11.9685 16.7244C11.7202 16.1249 11.6552 15.4651 11.7818 14.8286C11.9084 14.1921 12.2209 13.6074 12.6798 13.1486C13.1387 12.6897 13.7234 12.3772 14.3599 12.2505C14.9964 12.1239 15.6561 12.1889 16.2557 12.4373C16.8552 12.6856 17.3677 13.1062 17.7283 13.6458C18.0888 14.1854 18.2812 14.8198 18.2812 15.4688C18.2812 16.339 17.9355 17.1736 17.3202 17.7889C16.7048 18.4043 15.8702 18.75 15 18.75Z" fill="white"/>
</svg>
