<svg width="30" height="30" viewBox="0 0 30 30" fill="none" xmlns="http://www.w3.org/2000/svg">
<path d="M17.8125 13.125C18.3688 13.125 18.9125 12.9601 19.375 12.651C19.8376 12.342 20.198 11.9027 20.4109 11.3888C20.6238 10.8749 20.6795 10.3094 20.571 9.76381C20.4624 9.21824 20.1946 8.7171 19.8012 8.32376C19.4079 7.93043 18.9068 7.66256 18.3612 7.55404C17.8156 7.44552 17.2501 7.50122 16.7362 7.71409C16.2223 7.92696 15.783 8.28745 15.474 8.74996C15.1649 9.21247 15 9.75624 15 10.3125C15 11.0584 15.2963 11.7738 15.8238 12.3012C16.3512 12.8287 17.0666 13.125 17.8125 13.125ZM17.8125 9.375C17.9979 9.375 18.1792 9.42999 18.3333 9.533C18.4875 9.63601 18.6077 9.78243 18.6786 9.95374C18.7496 10.125 18.7682 10.3135 18.732 10.4954C18.6958 10.6773 18.6065 10.8443 18.4754 10.9754C18.3443 11.1065 18.1773 11.1958 17.9954 11.232C17.8135 11.2682 17.625 11.2496 17.4537 11.1786C17.2824 11.1077 17.136 10.9875 17.033 10.8333C16.93 10.6792 16.875 10.4979 16.875 10.3125C16.875 10.0639 16.9738 9.8254 17.1496 9.64959C17.3254 9.47377 17.5639 9.375 17.8125 9.375Z" fill="white"/>
<path d="M24.375 3.75H5.625C5.12772 3.75 4.65081 3.94754 4.29917 4.29917C3.94754 4.65081 3.75 5.12772 3.75 5.625V24.375C3.75 24.8723 3.94754 25.3492 4.29917 25.7008C4.65081 26.0525 5.12772 26.25 5.625 26.25H24.375C24.8723 26.25 25.3492 26.0525 25.7008 25.7008C26.0525 25.3492 26.25 24.8723 26.25 24.375V5.625C26.25 5.12772 26.0525 4.65081 25.7008 4.29917C25.3492 3.94754 24.8723 3.75 24.375 3.75ZM24.375 24.375H5.625V18.75L10.3125 14.0625L15.5531 19.3031C15.9044 19.6523 16.3797 19.8484 16.875 19.8484C17.3703 19.8484 17.8456 19.6523 18.1969 19.3031L19.6875 17.8125L24.375 22.5V24.375ZM24.375 19.8469L21.0094 16.4812C20.6581 16.132 20.1828 15.936 19.6875 15.936C19.1922 15.936 18.7169 16.132 18.3656 16.4812L16.875 17.9719L11.6344 12.7312C11.2831 12.382 10.8078 12.186 10.3125 12.186C9.81715 12.186 9.34193 12.382 8.99063 12.7312L5.625 16.0969V5.625H24.375V19.8469Z" fill="white"/>
</svg>
