<svg width="25" height="25" viewBox="0 0 25 25" fill="none" xmlns="http://www.w3.org/2000/svg">
<path d="M18.3853 6.61496C17.5122 5.73398 16.4524 5.06039 15.2841 4.6439C14.1158 4.22742 12.8688 4.0787 11.6353 4.20871C7.81241 4.59412 4.66658 7.69829 4.23949 11.5212C3.66658 16.5733 7.57283 20.8337 12.4999 20.8337C14.0729 20.8337 15.6137 20.3874 16.9431 19.5466C18.2726 18.7057 19.3362 17.505 20.0103 16.0837C20.3437 15.3858 19.8437 14.5837 19.0728 14.5837C18.6874 14.5837 18.3228 14.792 18.1562 15.1358C17.5514 16.4369 16.517 17.4899 15.2269 18.1179C13.9369 18.7458 12.4699 18.9103 11.0728 18.5837C8.76033 18.0733 6.89574 16.1879 6.40616 13.8754C6.20036 12.9611 6.20274 12.0122 6.41313 11.0989C6.62352 10.1856 7.03654 9.33136 7.62163 8.59925C8.20672 7.86714 8.94891 7.27593 9.79332 6.86935C10.6377 6.46277 11.5627 6.25123 12.4999 6.25037C14.2291 6.25037 15.7707 6.96912 16.8957 8.10454L15.3228 9.67746C14.6666 10.3337 15.1249 11.4587 16.052 11.4587H19.7916C20.3645 11.4587 20.8332 10.99 20.8332 10.417V6.67746C20.8332 5.75037 19.7082 5.28162 19.052 5.93787L18.3853 6.61496Z" fill="#CCCCCC"/>
</svg>
