<svg width="25" height="25" viewBox="0 0 25 25" fill="none" xmlns="http://www.w3.org/2000/svg">
<path d="M18.7503 10.417H14.5837V6.25033C14.5837 5.69779 14.3642 5.16789 13.9735 4.77719C13.5828 4.38649 13.0529 4.16699 12.5003 4.16699C11.9478 4.16699 11.4179 4.38649 11.0272 4.77719C10.6365 5.16789 10.417 5.69779 10.417 6.25033L10.491 10.417H6.25033C5.69779 10.417 5.16789 10.6365 4.77719 11.0272C4.38649 11.4179 4.16699 11.9478 4.16699 12.5003C4.16699 13.0529 4.38649 13.5828 4.77719 13.9735C5.16789 14.3642 5.69779 14.5837 6.25033 14.5837L10.491 14.5097L10.417 18.7503C10.417 19.3029 10.6365 19.8328 11.0272 20.2235C11.4179 20.6142 11.9478 20.8337 12.5003 20.8337C13.0529 20.8337 13.5828 20.6142 13.9735 20.2235C14.3642 19.8328 14.5837 19.3029 14.5837 18.7503V14.5097L18.7503 14.5837C19.3029 14.5837 19.8328 14.3642 20.2235 13.9735C20.6142 13.5828 20.8337 13.0529 20.8337 12.5003C20.8337 11.9478 20.6142 11.4179 20.2235 11.0272C19.8328 10.6365 19.3029 10.417 18.7503 10.417Z" fill="#E94057"/>
</svg>
