<svg width="12" height="12" viewBox="0 0 12 12" fill="none" xmlns="http://www.w3.org/2000/svg">
<path d="M1 5C0.447715 5 0 5.44772 0 6C0 6.55228 0.447715 7 1 7V5ZM11 6L11.7071 6.70711C12.0976 6.31658 12.0976 5.68342 11.7071 5.29289L11 6ZM6.70711 0.292893C6.31658 -0.0976311 5.68342 -0.0976311 5.29289 0.292893C4.90237 0.683417 4.90237 1.31658 5.29289 1.70711L6.70711 0.292893ZM5.29289 10.2929C4.90237 10.6834 4.90237 11.3166 5.29289 11.7071C5.68342 12.0976 6.31658 12.0976 6.70711 11.7071L5.29289 10.2929ZM1 7H11V5H1V7ZM5.29289 1.70711L10.2929 6.70711L11.7071 5.29289L6.70711 0.292893L5.29289 1.70711ZM10.2929 5.29289L5.29289 10.2929L6.70711 11.7071L11.7071 6.70711L10.2929 5.29289Z" fill="black"/>
</svg>
