<svg width="25" height="25" viewBox="0 0 25 25" fill="none" xmlns="http://www.w3.org/2000/svg">
<g clip-path="url(#clip0_993_2570)">
<path d="M23.9901 4.1352L20.8651 1.0102C20.7185 0.863606 20.5197 0.78125 20.3124 0.78125C20.1051 0.78125 19.9062 0.863606 19.7597 1.0102C19.6131 1.15679 19.5307 1.35562 19.5307 1.56293C19.5307 1.77025 19.6131 1.96907 19.7597 2.11567L19.9042 2.25922L14.5165 6.30024L10.7841 7.04731C10.6329 7.07758 10.494 7.15162 10.3847 7.2602L2.24598 15.3969C1.80648 15.8365 1.55957 16.4326 1.55957 17.0541C1.55957 17.6757 1.80648 18.2718 2.24598 18.7114L6.28895 22.7543C6.72849 23.1938 7.32461 23.4408 7.94618 23.4408C8.56775 23.4408 9.16387 23.1938 9.60341 22.7543L17.7401 14.6186C17.8489 14.5094 17.923 14.3704 17.953 14.2192L18.7001 10.4868L22.7411 5.09907L22.8847 5.2436C22.9572 5.31618 23.0434 5.37376 23.1383 5.41305C23.2331 5.45233 23.3347 5.47255 23.4374 5.47255C23.54 5.47255 23.6417 5.45233 23.7365 5.41305C23.8314 5.37376 23.9175 5.31618 23.9901 5.2436C24.0627 5.17101 24.1203 5.08484 24.1596 4.99C24.1989 4.89516 24.2191 4.79352 24.2191 4.69086C24.2191 4.58821 24.1989 4.48656 24.1596 4.39173C24.1203 4.29689 24.0627 4.21072 23.9901 4.13813V4.1352ZM9.37489 10.4799L14.5204 15.6254L10.1561 19.9897L5.01063 14.8442L9.37489 10.4799ZM7.94618 21.8754C7.84367 21.8757 7.74212 21.8557 7.64742 21.8164C7.55271 21.7772 7.46672 21.7196 7.39442 21.6469L3.35341 17.6059C3.207 17.4594 3.12476 17.2608 3.12476 17.0537C3.12476 16.8465 3.207 16.6479 3.35341 16.5014L3.90614 15.9487L9.05165 21.0942L8.49598 21.6469C8.35006 21.7927 8.15243 21.8748 7.94618 21.8754ZM17.3436 9.68793C17.2735 9.7811 17.2255 9.88895 17.203 10.0034L16.4677 13.6782L15.6249 14.5209L10.4794 9.37543L11.3222 8.53266L14.997 7.79731C15.1114 7.77487 15.2192 7.72679 15.3124 7.65668L21.0204 3.37543L21.6249 3.97993L17.3436 9.68793Z" fill="#E94057"/>
</g>
<defs>
<clipPath id="clip0_993_2570">
<rect width="25" height="25" fill="white"/>
</clipPath>
</defs>
</svg>
