<svg width="25" height="25" viewBox="0 0 25 25" fill="none" xmlns="http://www.w3.org/2000/svg">
<path d="M22.9802 7.1648L17.8347 2.02027C17.6896 1.87514 17.5174 1.76002 17.3278 1.68147C17.1382 1.60293 16.935 1.5625 16.7297 1.5625C16.5245 1.5625 16.3213 1.60293 16.1317 1.68147C15.9421 1.76002 15.7699 1.87514 15.6248 2.02027L2.0193 15.6248C1.87417 15.7699 1.75904 15.9421 1.6805 16.1317C1.60195 16.3213 1.56152 16.5245 1.56152 16.7297C1.56152 16.935 1.60195 17.1382 1.6805 17.3278C1.75904 17.5174 1.87417 17.6896 2.0193 17.8347L7.1648 22.9793C7.3099 23.1244 7.48216 23.2395 7.67176 23.3181C7.86135 23.3966 8.06456 23.437 8.26978 23.437C8.475 23.437 8.67821 23.3966 8.86781 23.3181C9.0574 23.2395 9.22967 23.1244 9.37476 22.9793L22.9802 9.37476C23.1254 9.22967 23.2405 9.0574 23.319 8.86781C23.3976 8.67821 23.438 8.475 23.438 8.26978C23.438 8.06456 23.3976 7.86135 23.319 7.67176C23.2405 7.48216 23.1254 7.3099 22.9802 7.1648ZM8.2693 21.8748L3.12476 16.7293L6.24976 13.6043L8.82203 16.1775C8.89462 16.2501 8.98079 16.3077 9.07563 16.3469C9.17046 16.3862 9.27211 16.4064 9.37476 16.4064C9.47742 16.4064 9.57906 16.3862 9.6739 16.3469C9.76874 16.3077 9.85491 16.2501 9.9275 16.1775C10.0001 16.1049 10.0577 16.0187 10.0969 15.9239C10.1362 15.8291 10.1564 15.7274 10.1564 15.6248C10.1564 15.5221 10.1362 15.4205 10.0969 15.3256C10.0577 15.2308 10.0001 15.1446 9.9275 15.072L7.35426 12.4998L9.37476 10.4793L11.947 13.0525C12.0936 13.1991 12.2924 13.2814 12.4998 13.2814C12.7071 13.2814 12.9059 13.1991 13.0525 13.0525C13.1991 12.9059 13.2814 12.7071 13.2814 12.4998C13.2814 12.2924 13.1991 12.0936 13.0525 11.947L10.4793 9.37476L12.4998 7.35426L15.072 9.9275C15.1446 10.0001 15.2308 10.0577 15.3256 10.0969C15.4205 10.1362 15.5221 10.1564 15.6248 10.1564C15.7274 10.1564 15.8291 10.1362 15.9239 10.0969C16.0187 10.0577 16.1049 10.0001 16.1775 9.9275C16.2501 9.85491 16.3077 9.76874 16.3469 9.6739C16.3862 9.57906 16.4064 9.47742 16.4064 9.37476C16.4064 9.27211 16.3862 9.17046 16.3469 9.07563C16.3077 8.98079 16.2501 8.89462 16.1775 8.82203L13.6043 6.24976L16.7293 3.12476L21.8748 8.27027L8.2693 21.8748Z" fill="#E94057"/>
</svg>
