<svg width="25" height="25" viewBox="0 0 25 25" fill="none" xmlns="http://www.w3.org/2000/svg">
<path d="M21.1771 3.82337C20.9801 3.62771 20.7329 3.49016 20.4627 3.42584C20.1926 3.36152 19.9099 3.37292 19.6459 3.45878L4.40628 8.54212C4.12364 8.63167 3.87389 8.80298 3.68856 9.0344C3.50322 9.26582 3.39063 9.54697 3.36499 9.84235C3.33936 10.1377 3.40183 10.4341 3.54452 10.694C3.68721 10.9538 3.90372 11.1656 4.16669 11.3025L10.4896 14.4275L13.6146 20.7713C13.7402 21.0196 13.9324 21.2281 14.1697 21.3734C14.407 21.5187 14.6801 21.5952 14.9584 21.5942H15.0625C15.3605 21.5723 15.6451 21.4612 15.8791 21.2754C16.1132 21.0896 16.286 20.8378 16.375 20.5525L21.5313 5.35462C21.6234 5.09205 21.6389 4.80872 21.5762 4.53763C21.5135 4.26654 21.3751 4.01884 21.1771 3.82337ZM5.05211 9.97962L18.3542 5.54212L10.9688 12.9275L5.05211 9.97962ZM15.0313 19.9484L12.0729 14.0317L19.4584 6.64628L15.0313 19.9484Z" fill="#E94057"/>
</svg>
