<svg width="25" height="25" viewBox="0 0 25 25" fill="none" xmlns="http://www.w3.org/2000/svg">
<path d="M8.33333 13.5413V17.708M16.6667 5.20801V5.72884C16.6667 6.28138 16.8862 6.81128 17.2769 7.20198C17.6676 7.59268 18.1975 7.81217 18.75 7.81217C19.3025 7.81217 19.8324 8.03167 20.2231 8.42237C20.6138 8.81307 20.8333 9.34297 20.8333 9.89551V10.4163M3.125 14.583C3.125 14.3067 3.23475 14.0418 3.4301 13.8464C3.62545 13.6511 3.8904 13.5413 4.16667 13.5413H20.8333C21.1096 13.5413 21.3746 13.6511 21.5699 13.8464C21.7653 14.0418 21.875 14.3067 21.875 14.583V16.6663C21.875 16.9426 21.7653 17.2076 21.5699 17.4029C21.3746 17.5983 21.1096 17.708 20.8333 17.708H4.16667C3.8904 17.708 3.62545 17.5983 3.4301 17.4029C3.23475 17.2076 3.125 16.9426 3.125 16.6663V14.583Z" stroke="#E94057" stroke-width="2" stroke-linecap="round" stroke-linejoin="round"/>
</svg>
