<svg width="25" height="25" viewBox="0 0 25 25" fill="none" xmlns="http://www.w3.org/2000/svg">
<path d="M16.4062 9.375H18.3594C18.8774 9.375 19.3742 9.58078 19.7404 9.94706C20.1067 10.3133 20.3125 10.8101 20.3125 11.3281V20.7031C20.3125 21.2211 20.1067 21.7179 19.7404 22.0842C19.3742 22.4505 18.8774 22.6562 18.3594 22.6562H6.64062C6.12262 22.6563 5.62584 22.4505 5.25956 22.0842C4.89328 21.7179 4.6875 21.2211 4.6875 20.7031V11.3281C4.6875 10.8101 4.89328 10.3133 5.25956 9.94706C5.62584 9.58078 6.12262 9.375 6.64062 9.375H8.59375M16.4062 6.25L12.5 2.34375M12.5 2.34375L8.59375 6.25M12.5 2.34375V15.6738" stroke="black" stroke-width="2" stroke-linecap="round" stroke-linejoin="round"/>
</svg>
