<svg width="25" height="25" viewBox="0 0 25 25" fill="none" xmlns="http://www.w3.org/2000/svg">
<path d="M4.71152 19.4336C4.71152 19.8657 5.06064 20.2148 5.49277 20.2148H19.5064C19.9386 20.2148 20.2877 19.8657 20.2877 19.4336V13.7451C20.2877 9.44336 16.8014 5.95703 12.4996 5.95703C8.19785 5.95703 4.71152 9.44336 4.71152 13.7451V19.4336ZM6.46934 13.7451C6.46934 10.415 9.16953 7.71484 12.4996 7.71484C15.8297 7.71484 18.5299 10.415 18.5299 13.7451V18.457H9.86289V14.2822C9.86289 14.1479 9.75303 14.0381 9.61875 14.0381H8.54453C8.41025 14.0381 8.30039 14.1479 8.30039 14.2822V18.457H6.46934V13.7451ZM5.29502 7.58057L6.26182 6.61377C6.3375 6.53809 6.3375 6.41357 6.26182 6.33789L4.6041 4.68018C4.56739 4.64383 4.51782 4.62344 4.46616 4.62344C4.4145 4.62344 4.36493 4.64383 4.32822 4.68018L3.36143 5.64697C3.32508 5.68368 3.30469 5.73325 3.30469 5.78491C3.30469 5.83657 3.32508 5.88614 3.36143 5.92285L5.01914 7.58057C5.09482 7.65625 5.21689 7.65625 5.29502 7.58057ZM21.6427 5.64697L20.6759 4.68018C20.6392 4.64383 20.5896 4.62344 20.5379 4.62344C20.4863 4.62344 20.4367 4.64383 20.4 4.68018L18.7423 6.33789C18.7059 6.3746 18.6855 6.42417 18.6855 6.47583C18.6855 6.52749 18.7059 6.57706 18.7423 6.61377L19.7091 7.58057C19.7848 7.65625 19.9093 7.65625 19.985 7.58057L21.6427 5.92285C21.7184 5.84473 21.7184 5.72266 21.6427 5.64697ZM20.3121 21.7773H4.68711C4.25498 21.7773 3.90586 22.1265 3.90586 22.5586V23.1445C3.90586 23.252 3.99375 23.3398 4.10117 23.3398H20.898C21.0055 23.3398 21.0934 23.252 21.0934 23.1445V22.5586C21.0934 22.1265 20.7442 21.7773 20.3121 21.7773ZM11.816 4.39453H13.1832C13.2906 4.39453 13.3785 4.30664 13.3785 4.19922V1.85547C13.3785 1.74805 13.2906 1.66016 13.1832 1.66016H11.816C11.7086 1.66016 11.6207 1.74805 11.6207 1.85547V4.19922C11.6207 4.30664 11.7086 4.39453 11.816 4.39453Z" fill="white"/>
</svg>
