<svg width="25" height="25" viewBox="0 0 25 25" fill="none" xmlns="http://www.w3.org/2000/svg">
<path d="M20.171 4.82872C20.5615 5.2194 20.7809 5.74921 20.7809 6.30164C20.7809 6.85406 20.5615 7.38387 20.171 7.77456C20.6171 9.02053 20.7157 10.3644 20.4562 11.6622C20.1967 12.9599 19.589 14.1626 18.698 15.1412L16.4876 17.3496C16.0851 17.863 15.8087 18.4638 15.6808 19.1035C15.5529 19.7433 15.577 20.4041 15.7512 21.0329L3.9668 9.24956C4.59539 9.42357 5.25605 9.44759 5.89561 9.31967C6.53518 9.19176 7.13578 8.91549 7.64909 8.5131L9.85846 6.30164C10.8371 5.41072 12.0398 4.80294 13.3375 4.54346C14.6353 4.28399 15.9792 4.3826 17.2251 4.82872C17.6158 4.43816 18.1456 4.21875 18.698 4.21875C19.2505 4.21875 19.7803 4.43816 20.171 4.82872Z" stroke="#E94057" stroke-width="2" stroke-linecap="round" stroke-linejoin="round"/>
<path d="M7.6489 12.9307L6.91244 13.6671C6.32634 14.2532 5.99707 15.0481 5.99707 15.877C5.99707 16.7059 6.32634 17.5008 6.91244 18.0869C7.49854 18.673 8.29346 19.0023 9.12233 19.0023C9.95121 19.0023 10.7461 18.673 11.3322 18.0869L12.0687 17.3505" stroke="#E94057" stroke-width="2" stroke-linecap="round" stroke-linejoin="round"/>
</svg>
