<svg width="14" height="20" viewBox="0 0 14 20" fill="none" xmlns="http://www.w3.org/2000/svg">
<g filter="url(#filter0_ii_496_378)">
<path d="M3 20C1.34315 20 0 18.6569 0 17V3C0 1.34315 1.34315 0 3 0H11.9824C13.0665 0 13.9453 0.878816 13.9453 1.96289V1.96289C13.9453 3.04697 13.0665 3.92578 11.9824 3.92578H6.88477C5.75215 3.92578 4.83398 4.84395 4.83398 5.97656V5.97656C4.83398 7.10918 5.75215 8.02734 6.88477 8.02734H11.2646C12.3514 8.02734 13.2324 8.90835 13.2324 9.99512V9.99512C13.2324 11.0819 12.3514 11.9629 11.2646 11.9629H6.88965C5.75434 11.9629 4.83398 12.8832 4.83398 14.0186V14.0186C4.83398 15.1539 5.75434 16.0742 6.88965 16.0742H11.9824C13.0665 16.0742 13.9453 16.953 13.9453 18.0371V18.0371C13.9453 19.1212 13.0665 20 11.9824 20H3Z" fill="#3C8AFF"/>
</g>
<defs>
<filter id="filter0_ii_496_378" x="-3" y="-2" width="16.9453" height="24" filterUnits="userSpaceOnUse" color-interpolation-filters="sRGB">
<feFlood flood-opacity="0" result="BackgroundImageFix"/>
<feBlend mode="normal" in="SourceGraphic" in2="BackgroundImageFix" result="shape"/>
<feColorMatrix in="SourceAlpha" type="matrix" values="0 0 0 0 0 0 0 0 0 0 0 0 0 0 0 0 0 0 127 0" result="hardAlpha"/>
<feOffset dx="-3" dy="2"/>
<feGaussianBlur stdDeviation="1.5"/>
<feComposite in2="hardAlpha" operator="arithmetic" k2="-1" k3="1"/>
<feColorMatrix type="matrix" values="0 0 0 0 0.0404166 0 0 0 0 0.0208333 0 0 0 0 1 0 0 0 1 0"/>
<feBlend mode="normal" in2="shape" result="effect1_innerShadow_496_378"/>
<feColorMatrix in="SourceAlpha" type="matrix" values="0 0 0 0 0 0 0 0 0 0 0 0 0 0 0 0 0 0 127 0" result="hardAlpha"/>
<feOffset dx="-3" dy="-2"/>
<feGaussianBlur stdDeviation="2"/>
<feComposite in2="hardAlpha" operator="arithmetic" k2="-1" k3="1"/>
<feColorMatrix type="matrix" values="0 0 0 0 0.804167 0 0 0 0 0.0208333 0 0 0 0 1 0 0 0 0.8 0"/>
<feBlend mode="normal" in2="effect1_innerShadow_496_378" result="effect2_innerShadow_496_378"/>
</filter>
</defs>
</svg>
