<svg width="14" height="20" viewBox="0 0 14 20" fill="none" xmlns="http://www.w3.org/2000/svg">
<g filter="url(#filter0_ii_496_277)">
<path d="M2.41699 20C1.08212 20 0 18.9179 0 17.583V3C0 1.34315 1.34315 0 3 0H11.6895C12.7735 0 13.6523 0.878816 13.6523 1.96289V1.96289C13.6523 3.04697 12.7735 3.92578 11.6895 3.92578H6.88477C5.75215 3.92578 4.83398 4.84395 4.83398 5.97656V5.97656C4.83398 7.10918 5.75215 8.02734 6.88477 8.02734H10.8154C11.9022 8.02734 12.7832 8.90835 12.7832 9.99512V9.99512C12.7832 11.0819 11.9022 11.9629 10.8154 11.9629H7.83398C6.17713 11.9629 4.83398 13.306 4.83398 14.9629V17.583C4.83398 18.9179 3.75186 20 2.41699 20V20Z" fill="#3C8AFF"/>
</g>
<defs>
<filter id="filter0_ii_496_277" x="-3" y="-2" width="16.6523" height="24" filterUnits="userSpaceOnUse" color-interpolation-filters="sRGB">
<feFlood flood-opacity="0" result="BackgroundImageFix"/>
<feBlend mode="normal" in="SourceGraphic" in2="BackgroundImageFix" result="shape"/>
<feColorMatrix in="SourceAlpha" type="matrix" values="0 0 0 0 0 0 0 0 0 0 0 0 0 0 0 0 0 0 127 0" result="hardAlpha"/>
<feOffset dx="-3" dy="2"/>
<feGaussianBlur stdDeviation="1.5"/>
<feComposite in2="hardAlpha" operator="arithmetic" k2="-1" k3="1"/>
<feColorMatrix type="matrix" values="0 0 0 0 0.0404166 0 0 0 0 0.0208333 0 0 0 0 1 0 0 0 1 0"/>
<feBlend mode="normal" in2="shape" result="effect1_innerShadow_496_277"/>
<feColorMatrix in="SourceAlpha" type="matrix" values="0 0 0 0 0 0 0 0 0 0 0 0 0 0 0 0 0 0 127 0" result="hardAlpha"/>
<feOffset dx="-3" dy="-2"/>
<feGaussianBlur stdDeviation="2"/>
<feComposite in2="hardAlpha" operator="arithmetic" k2="-1" k3="1"/>
<feColorMatrix type="matrix" values="0 0 0 0 0.804167 0 0 0 0 0.0208333 0 0 0 0 1 0 0 0 0.8 0"/>
<feBlend mode="normal" in2="effect1_innerShadow_496_277" result="effect2_innerShadow_496_277"/>
</filter>
</defs>
</svg>
