<svg width="14" height="20" viewBox="0 0 14 20" fill="none" xmlns="http://www.w3.org/2000/svg">
<g filter="url(#filter0_ii_496_233)">
<path d="M9.03671 2.35067C9.03671 1.05243 10.0891 0 11.3874 0V0C12.6856 0 13.7381 1.05243 13.7381 2.35067V13.6416C13.7316 14.9197 13.4266 16.0373 12.8228 16.9942C12.2191 17.9448 11.3842 18.6834 10.318 19.21C9.25829 19.7367 8.03157 20 6.63787 20C5.40473 20 4.28398 19.7848 3.27563 19.3545C2.27371 18.9242 1.47409 18.2563 0.876789 17.3507C0.659942 17.0183 0.483318 16.6518 0.346916 16.2511C-0.0833807 14.9872 1.07931 13.8728 2.41454 13.8728H3.40792C4.15702 13.8728 4.71331 14.4986 5.03864 15.1734V15.1734C5.21847 15.5267 5.46574 15.7932 5.78045 15.973C6.09516 16.1529 6.47088 16.2428 6.90762 16.2428C7.36362 16.2428 7.74898 16.1464 8.06369 15.9538C8.37839 15.7547 8.61603 15.4624 8.7766 15.0771C8.94358 14.6917 9.03029 14.2132 9.03671 13.6416V2.35067Z" fill="#3C8AFF"/>
</g>
<defs>
<filter id="filter0_ii_496_233" x="-2.74414" y="-2" width="16.4824" height="24" filterUnits="userSpaceOnUse" color-interpolation-filters="sRGB">
<feFlood flood-opacity="0" result="BackgroundImageFix"/>
<feBlend mode="normal" in="SourceGraphic" in2="BackgroundImageFix" result="shape"/>
<feColorMatrix in="SourceAlpha" type="matrix" values="0 0 0 0 0 0 0 0 0 0 0 0 0 0 0 0 0 0 127 0" result="hardAlpha"/>
<feOffset dx="-3" dy="2"/>
<feGaussianBlur stdDeviation="1.5"/>
<feComposite in2="hardAlpha" operator="arithmetic" k2="-1" k3="1"/>
<feColorMatrix type="matrix" values="0 0 0 0 0.0404166 0 0 0 0 0.0208333 0 0 0 0 1 0 0 0 1 0"/>
<feBlend mode="normal" in2="shape" result="effect1_innerShadow_496_233"/>
<feColorMatrix in="SourceAlpha" type="matrix" values="0 0 0 0 0 0 0 0 0 0 0 0 0 0 0 0 0 0 127 0" result="hardAlpha"/>
<feOffset dx="-3" dy="-2"/>
<feGaussianBlur stdDeviation="2"/>
<feComposite in2="hardAlpha" operator="arithmetic" k2="-1" k3="1"/>
<feColorMatrix type="matrix" values="0 0 0 0 0.804167 0 0 0 0 0.0208333 0 0 0 0 1 0 0 0 0.8 0"/>
<feBlend mode="normal" in2="effect1_innerShadow_496_233" result="effect2_innerShadow_496_233"/>
</filter>
</defs>
</svg>
