<svg width="18" height="20" viewBox="0 0 18 20" fill="none" xmlns="http://www.w3.org/2000/svg">
<g filter="url(#filter0_ii_496_223)">
<path d="M14.6094 0C15.9415 0 17.0215 1.07994 17.0215 2.41211V17.3107C17.0215 18.796 15.8175 20 14.3322 20V20C13.4479 20 12.6202 19.5653 12.1182 18.8373L4.98575 8.49302C4.97021 8.47049 4.94459 8.45703 4.91722 8.45703V8.45703C4.87125 8.45703 4.83398 8.4943 4.83398 8.54027V17.583C4.83398 18.9179 3.75186 20 2.41699 20V20C1.08212 20 0 18.9179 0 17.583V2.72268C0 1.21899 1.21898 0 2.72268 0V0C3.62216 0 4.4636 0.444249 4.97094 1.187L11.9989 11.4761C12.0191 11.5057 12.0527 11.5234 12.0886 11.5234V11.5234C12.1486 11.5234 12.1973 11.4748 12.1973 11.4148V2.41211C12.1973 1.07994 13.2772 0 14.6094 0V0Z" fill="#3C8AFF"/>
</g>
<defs>
<filter id="filter0_ii_496_223" x="-3" y="-2" width="20.0215" height="24" filterUnits="userSpaceOnUse" color-interpolation-filters="sRGB">
<feFlood flood-opacity="0" result="BackgroundImageFix"/>
<feBlend mode="normal" in="SourceGraphic" in2="BackgroundImageFix" result="shape"/>
<feColorMatrix in="SourceAlpha" type="matrix" values="0 0 0 0 0 0 0 0 0 0 0 0 0 0 0 0 0 0 127 0" result="hardAlpha"/>
<feOffset dx="-3" dy="2"/>
<feGaussianBlur stdDeviation="1.5"/>
<feComposite in2="hardAlpha" operator="arithmetic" k2="-1" k3="1"/>
<feColorMatrix type="matrix" values="0 0 0 0 0.0404166 0 0 0 0 0.0208333 0 0 0 0 1 0 0 0 1 0"/>
<feBlend mode="normal" in2="shape" result="effect1_innerShadow_496_223"/>
<feColorMatrix in="SourceAlpha" type="matrix" values="0 0 0 0 0 0 0 0 0 0 0 0 0 0 0 0 0 0 127 0" result="hardAlpha"/>
<feOffset dx="-3" dy="-2"/>
<feGaussianBlur stdDeviation="2"/>
<feComposite in2="hardAlpha" operator="arithmetic" k2="-1" k3="1"/>
<feColorMatrix type="matrix" values="0 0 0 0 0.804167 0 0 0 0 0.0208333 0 0 0 0 1 0 0 0 0.8 0"/>
<feBlend mode="normal" in2="effect1_innerShadow_496_223" result="effect2_innerShadow_496_223"/>
</filter>
</defs>
</svg>
