<svg width="16" height="20" viewBox="0 0 16 20" fill="none" xmlns="http://www.w3.org/2000/svg">
<g filter="url(#filter0_ii_496_262)">
<path d="M2.41699 20C1.08212 20 0 18.9179 0 17.583V3C0 1.34315 1.34315 0 3 0H8.26172C9.75911 0 11.0514 0.292969 12.1387 0.878907C13.2324 1.45833 14.0755 2.26888 14.668 3.31055C15.2604 4.3457 15.5566 5.55013 15.5566 6.92383C15.5566 8.30404 15.2539 9.51172 14.6484 10.5469C14.0495 11.5755 13.1934 12.373 12.0801 12.9395C10.9668 13.5059 9.64518 13.7891 8.11523 13.7891H4.92187C3.87016 13.7891 3.01758 12.9365 3.01758 11.8848V11.8848C3.01758 10.8331 3.87016 9.98047 4.92187 9.98047H7.2168C7.94596 9.98047 8.55469 9.85352 9.04297 9.59961C9.53776 9.3457 9.91211 8.99089 10.166 8.53516C10.4199 8.07292 10.5469 7.53581 10.5469 6.92383C10.5469 6.30534 10.4199 5.77148 10.166 5.32227C9.91211 4.86654 9.53776 4.51497 9.04297 4.26758C8.54818 4.02018 7.93945 3.89648 7.2168 3.89648V3.89648C5.90081 3.89648 4.83398 4.96331 4.83398 6.2793V17.583C4.83398 18.9179 3.75186 20 2.41699 20V20Z" fill="#3C8AFF"/>
</g>
<defs>
<filter id="filter0_ii_496_262" x="-3" y="-2" width="18.5566" height="24" filterUnits="userSpaceOnUse" color-interpolation-filters="sRGB">
<feFlood flood-opacity="0" result="BackgroundImageFix"/>
<feBlend mode="normal" in="SourceGraphic" in2="BackgroundImageFix" result="shape"/>
<feColorMatrix in="SourceAlpha" type="matrix" values="0 0 0 0 0 0 0 0 0 0 0 0 0 0 0 0 0 0 127 0" result="hardAlpha"/>
<feOffset dx="-3" dy="2"/>
<feGaussianBlur stdDeviation="1.5"/>
<feComposite in2="hardAlpha" operator="arithmetic" k2="-1" k3="1"/>
<feColorMatrix type="matrix" values="0 0 0 0 0.0404166 0 0 0 0 0.0208333 0 0 0 0 1 0 0 0 1 0"/>
<feBlend mode="normal" in2="shape" result="effect1_innerShadow_496_262"/>
<feColorMatrix in="SourceAlpha" type="matrix" values="0 0 0 0 0 0 0 0 0 0 0 0 0 0 0 0 0 0 127 0" result="hardAlpha"/>
<feOffset dx="-3" dy="-2"/>
<feGaussianBlur stdDeviation="2"/>
<feComposite in2="hardAlpha" operator="arithmetic" k2="-1" k3="1"/>
<feColorMatrix type="matrix" values="0 0 0 0 0.804167 0 0 0 0 0.0208333 0 0 0 0 1 0 0 0 0.8 0"/>
<feBlend mode="normal" in2="effect1_innerShadow_496_262" result="effect2_innerShadow_496_262"/>
</filter>
</defs>
</svg>
