<svg width="16" height="20" viewBox="0 0 16 20" fill="none" xmlns="http://www.w3.org/2000/svg">
<g filter="url(#filter0_ii_389_679)">
<path d="M12.986 6.10847C11.9153 6.10847 11.0961 5.13579 10.2486 4.48145C9.75373 4.08817 9.04639 3.89153 8.12652 3.89153C7.51751 3.89153 7.01 3.97082 6.60399 4.1294C6.19798 4.28798 5.89347 4.50682 5.69047 4.78592C5.48746 5.05867 5.38279 5.37266 5.37645 5.72788C5.36376 6.01966 5.42085 6.27656 5.54773 6.49857C5.68095 6.72058 5.87127 6.91722 6.11868 7.08849C6.37244 7.25341 6.67694 7.3993 7.0322 7.52617C7.38746 7.65303 7.78712 7.76404 8.2312 7.85918L9.90598 8.23977C10.8703 8.4491 11.7203 8.7282 12.4562 9.07707C13.1985 9.42594 13.8202 9.84142 14.3213 10.3235C14.8288 10.8056 15.2126 11.3606 15.4727 11.9886C15.7328 12.6166 15.8661 13.3206 15.8724 14.1009C15.8661 15.3314 15.5552 16.3876 14.9399 17.2693C14.3245 18.151 13.4395 18.8265 12.2849 19.2959C11.1367 19.7653 9.75056 20 8.12652 20C6.49614 20 5.07511 19.7558 3.86343 19.2674C2.65175 18.7789 1.70968 18.0368 1.03723 17.0409C0.740428 16.6014 0.507275 16.1105 0.337767 15.5684C-0.0461044 14.3408 1.05134 13.2636 2.33762 13.2636H2.8396C3.77833 13.2636 4.47027 14.0689 5.01484 14.8335C5.31301 15.2521 5.72219 15.5693 6.24239 15.785C6.76893 16.0006 7.37794 16.1085 8.06943 16.1085C8.70382 16.1085 9.24305 16.0228 9.68712 15.8516C10.1375 15.6803 10.4833 15.4424 10.7243 15.138C10.9654 14.8335 11.0891 14.4846 11.0955 14.0913C11.0891 13.7234 10.9749 13.4095 10.7529 13.1494C10.5309 12.883 10.1883 12.6546 9.72518 12.4643C9.26842 12.2677 8.68478 12.0869 7.97427 11.922L5.93788 11.4462C4.25041 11.0593 2.92136 10.4345 1.95075 9.57184C0.980131 8.70282 0.497995 7.52934 0.504339 6.05138C0.497995 4.84618 0.821534 3.79004 1.47495 2.88297C2.12838 1.9759 3.03238 1.26863 4.18697 0.76118C5.34156 0.253727 6.65791 0 8.13604 0C9.64588 0 10.9559 0.256898 12.0661 0.770694C13.1826 1.27815 14.0485 1.99175 14.6639 2.91151C14.8528 3.1939 15.0134 3.49004 15.1455 3.79993C15.6571 4.99994 14.5411 6.10847 13.2366 6.10847H12.986Z" fill="#3C8AFF"/>
</g>
<defs>
<filter id="filter0_ii_389_679" x="-2.73975" y="-2" width="18.6123" height="24" filterUnits="userSpaceOnUse" color-interpolation-filters="sRGB">
<feFlood flood-opacity="0" result="BackgroundImageFix"/>
<feBlend mode="normal" in="SourceGraphic" in2="BackgroundImageFix" result="shape"/>
<feColorMatrix in="SourceAlpha" type="matrix" values="0 0 0 0 0 0 0 0 0 0 0 0 0 0 0 0 0 0 127 0" result="hardAlpha"/>
<feOffset dx="-3" dy="2"/>
<feGaussianBlur stdDeviation="1.5"/>
<feComposite in2="hardAlpha" operator="arithmetic" k2="-1" k3="1"/>
<feColorMatrix type="matrix" values="0 0 0 0 0.0404166 0 0 0 0 0.0208333 0 0 0 0 1 0 0 0 1 0"/>
<feBlend mode="normal" in2="shape" result="effect1_innerShadow_389_679"/>
<feColorMatrix in="SourceAlpha" type="matrix" values="0 0 0 0 0 0 0 0 0 0 0 0 0 0 0 0 0 0 127 0" result="hardAlpha"/>
<feOffset dx="-3" dy="-2"/>
<feGaussianBlur stdDeviation="2"/>
<feComposite in2="hardAlpha" operator="arithmetic" k2="-1" k3="1"/>
<feColorMatrix type="matrix" values="0 0 0 0 0.804167 0 0 0 0 0.0208333 0 0 0 0 1 0 0 0 0.8 0"/>
<feBlend mode="normal" in2="effect1_innerShadow_389_679" result="effect2_innerShadow_389_679"/>
</filter>
</defs>
</svg>
