<svg width="20" height="20" viewBox="0 0 20 20" fill="none" xmlns="http://www.w3.org/2000/svg">
<g clip-path="url(#clip0_776_710)">
<path d="M4.21875 7.8125C4.92953 7.8125 5.62434 7.60173 6.21533 7.20685C6.80632 6.81196 7.26694 6.25069 7.53894 5.59402C7.81094 4.93735 7.88211 4.21476 7.74345 3.51765C7.60478 2.82053 7.26251 2.18018 6.75991 1.67759C6.25732 1.17499 5.61698 0.83272 4.91986 0.694055C4.22274 0.555389 3.50015 0.626557 2.84348 0.89856C2.18681 1.17056 1.62554 1.63118 1.23066 2.22217C0.83577 2.81316 0.625 3.50797 0.625 4.21875C0.626034 5.17156 1.00499 6.08504 1.67873 6.75877C2.35246 7.43251 3.26595 7.81147 4.21875 7.8125ZM4.21875 1.875C4.6823 1.875 5.13544 2.01246 5.52087 2.26999C5.9063 2.52753 6.2067 2.89357 6.38409 3.32184C6.56149 3.7501 6.6079 4.22135 6.51747 4.67599C6.42703 5.13064 6.20381 5.54825 5.87603 5.87603C5.54825 6.20381 5.13064 6.42703 4.67599 6.51747C4.22135 6.6079 3.7501 6.56149 3.32184 6.38409C2.89357 6.2067 2.52753 5.9063 2.26999 5.52087C2.01246 5.13544 1.875 4.6823 1.875 4.21875C1.8757 3.59737 2.12286 3.00163 2.56224 2.56225C3.00163 2.12286 3.59736 1.8757 4.21875 1.875ZM18.6304 1.49453C18.0736 0.937787 17.3185 0.625011 16.5311 0.625011C15.7438 0.625011 14.9887 0.937787 14.4319 1.49453L14.218 1.7084C13.3922 2.53452 12.5983 3.39192 11.838 4.27871L11.8255 4.29317L6.40254 11.4636L3.06828 14.7979C2.75412 14.6173 2.38508 14.5571 2.02982 14.6283C1.67456 14.6996 1.35727 14.8974 1.13698 15.1851C0.916691 15.4728 0.808397 15.8307 0.832248 16.1922C0.856098 16.5537 1.01047 16.8943 1.26664 17.1505L2.84945 18.7333C3.1058 18.9893 3.44637 19.1435 3.80786 19.1672C4.16934 19.191 4.52715 19.0826 4.81477 18.8624C5.10239 18.6421 5.30024 18.3249 5.37156 17.9697C5.44288 17.6146 5.3828 17.2456 5.2025 16.9314L8.53219 13.6017L15.5595 8.49387L15.5924 8.46832C16.6461 7.58924 17.6598 6.66319 18.6303 5.69297C19.1862 5.13578 19.4984 4.38084 19.4984 3.59376C19.4984 2.80668 19.1863 2.05173 18.6304 1.49453ZM17.7464 4.8091C16.8074 5.7478 15.8268 6.64402 14.8077 7.49508L7.71781 12.6484L3.47086 16.8953L4.07914 17.5036C4.10224 17.5263 4.12062 17.5532 4.13322 17.583C4.14583 17.6128 4.1524 17.6447 4.15257 17.6771C4.15274 17.7094 4.1465 17.7414 4.13421 17.7713C4.12192 17.8012 4.10382 17.8284 4.08096 17.8512C4.05811 17.8741 4.03095 17.8922 4.00105 17.9045C3.97115 17.9168 3.93911 17.923 3.90679 17.9229C3.87446 17.9227 3.84249 17.9161 3.81272 17.9035C3.78296 17.8909 3.75598 17.8725 3.73336 17.8495L2.15055 16.2667C2.10468 16.2208 2.07892 16.1586 2.07891 16.0938C2.07891 16.0289 2.10467 15.9667 2.15053 15.9208C2.19639 15.875 2.25859 15.8492 2.32344 15.8492C2.3883 15.8492 2.4505 15.875 2.49637 15.9208L3.10469 16.5292L7.34766 12.2864L12.7996 5.07781C13.5353 4.22039 14.3033 3.39128 15.1021 2.59227L15.3159 2.37844C15.4753 2.2179 15.6648 2.09041 15.8736 2.00328C16.0824 1.91615 16.3063 1.87109 16.5325 1.87068C16.7588 1.87028 16.9828 1.91454 17.1919 2.00093C17.401 2.08731 17.591 2.21413 17.7509 2.37409C17.9109 2.53406 18.0377 2.72403 18.1241 2.93311C18.2105 3.14219 18.2548 3.36627 18.2544 3.5925C18.254 3.81873 18.2089 4.04265 18.1218 4.25142C18.0346 4.46019 17.9071 4.64971 17.7466 4.8091H17.7464Z" fill="white"/>
</g>
<defs>
<clipPath id="clip0_776_710">
<rect width="20" height="20" fill="white"/>
</clipPath>
</defs>
</svg>
