<svg width="20" height="20" viewBox="0 0 20 20" fill="none" xmlns="http://www.w3.org/2000/svg">
<path d="M10.0003 1.66699C14.6028 1.66699 18.3337 5.39783 18.3337 10.0003C18.3337 14.6028 14.6028 18.3337 10.0003 18.3337C5.39783 18.3337 1.66699 14.6028 1.66699 10.0003C1.66699 5.39783 5.39783 1.66699 10.0003 1.66699ZM10.0003 5.00033C8.67424 5.00033 7.40247 5.52711 6.46479 6.46479C5.52711 7.40247 5.00033 8.67424 5.00033 10.0003C5.00033 11.3264 5.52711 12.5982 6.46479 13.5359C7.40247 14.4735 8.67424 15.0003 10.0003 15.0003C11.3264 15.0003 12.5982 14.4735 13.5359 13.5359C14.4735 12.5982 15.0003 11.3264 15.0003 10.0003C15.0003 8.67424 14.4735 7.40247 13.5359 6.46479C12.5982 5.52711 11.3264 5.00033 10.0003 5.00033ZM10.0003 6.45866C10.4007 6.45865 10.7927 6.57402 11.1292 6.79098C11.4657 7.00793 11.7326 7.31727 11.8979 7.68197C12.0632 8.04667 12.1199 8.45128 12.0612 8.84736C12.0025 9.24345 11.8309 9.61423 11.567 9.91533C12.0378 10.2953 12.3337 10.8462 12.3337 11.4587C12.3337 12.6087 11.2887 13.542 10.0003 13.542C8.71199 13.542 7.66699 12.6087 7.66699 11.4587C7.66699 10.8462 7.96283 10.2953 8.43366 9.91449C8.16997 9.61337 7.99861 9.24267 7.94006 8.84672C7.88152 8.45077 7.93827 8.04634 8.10353 7.6818C8.26879 7.31726 8.53557 7.00804 8.87195 6.79112C9.20833 6.57421 9.60007 6.45879 10.0003 6.45866ZM10.0003 10.6253C9.37199 10.6253 8.91699 11.032 8.91699 11.4587C8.91699 11.8853 9.37283 12.292 10.0003 12.292C10.6287 12.292 11.0837 11.8853 11.0837 11.4587C11.0837 11.032 10.6287 10.6253 10.0003 10.6253ZM10.0003 7.70866C9.77931 7.70866 9.56735 7.79646 9.41107 7.95274C9.25479 8.10902 9.16699 8.32098 9.16699 8.54199C9.16699 8.76301 9.25479 8.97497 9.41107 9.13125C9.56735 9.28753 9.77931 9.37533 10.0003 9.37533C10.2213 9.37533 10.4333 9.28753 10.5896 9.13125C10.7459 8.97497 10.8337 8.76301 10.8337 8.54199C10.8337 8.32098 10.7459 8.10902 10.5896 7.95274C10.4333 7.79646 10.2213 7.70866 10.0003 7.70866Z" fill="white"/>
</svg>
