<svg width="20" height="20" viewBox="0 0 20 20" fill="none" xmlns="http://www.w3.org/2000/svg">
<g clip-path="url(#clip0_927_2161)">
<path fill-rule="evenodd" clip-rule="evenodd" d="M1.66699 5C1.66699 4.33696 1.93038 3.70107 2.39923 3.23223C2.86807 2.76339 3.50395 2.5 4.16699 2.5H15.8337C16.4967 2.5 17.1326 2.76339 17.6014 3.23223C18.0703 3.70107 18.3337 4.33696 18.3337 5V15C18.3337 15.663 18.0703 16.2989 17.6014 16.7678C17.1326 17.2366 16.4967 17.5 15.8337 17.5H4.16699C3.50395 17.5 2.86807 17.2366 2.39923 16.7678C1.93038 16.2989 1.66699 15.663 1.66699 15V5ZM4.16699 4.16667C3.94598 4.16667 3.73402 4.25446 3.57774 4.41074C3.42146 4.56702 3.33366 4.77899 3.33366 5V15C3.33366 15.221 3.42146 15.433 3.57774 15.5893C3.73402 15.7455 3.94598 15.8333 4.16699 15.8333H15.8337C16.0547 15.8333 16.2666 15.7455 16.4229 15.5893C16.5792 15.433 16.667 15.221 16.667 15V5C16.667 4.77899 16.5792 4.56702 16.4229 4.41074C16.2666 4.25446 16.0547 4.16667 15.8337 4.16667H4.16699ZM13.3337 5.83333C13.3337 5.61232 13.4215 5.40036 13.5777 5.24408C13.734 5.0878 13.946 5 14.167 5H15.0003C15.2213 5 15.4333 5.0878 15.5896 5.24408C15.7459 5.40036 15.8337 5.61232 15.8337 5.83333C15.8337 6.05435 15.7459 6.26631 15.5896 6.42259C15.4333 6.57887 15.2213 6.66667 15.0003 6.66667H14.167C13.946 6.66667 13.734 6.57887 13.5777 6.42259C13.4215 6.26631 13.3337 6.05435 13.3337 5.83333ZM7.50033 10C7.50033 9.33696 7.76372 8.70107 8.23256 8.23223C8.7014 7.76339 9.33728 7.5 10.0003 7.5C10.6634 7.5 11.2993 7.76339 11.7681 8.23223C12.2369 8.70107 12.5003 9.33696 12.5003 10C12.5003 10.663 12.2369 11.2989 11.7681 11.7678C11.2993 12.2366 10.6634 12.5 10.0003 12.5C9.33728 12.5 8.7014 12.2366 8.23256 11.7678C7.76372 11.2989 7.50033 10.663 7.50033 10ZM10.0003 5.83333C8.89526 5.83333 7.83545 6.27232 7.05405 7.05372C6.27265 7.83512 5.83366 8.89493 5.83366 10C5.83366 11.1051 6.27265 12.1649 7.05405 12.9463C7.83545 13.7277 8.89526 14.1667 10.0003 14.1667C11.1054 14.1667 12.1652 13.7277 12.9466 12.9463C13.728 12.1649 14.167 11.1051 14.167 10C14.167 8.89493 13.728 7.83512 12.9466 7.05372C12.1652 6.27232 11.1054 5.83333 10.0003 5.83333Z" fill="white"/>
</g>
<defs>
<clipPath id="clip0_927_2161">
<rect width="20" height="20" fill="white"/>
</clipPath>
</defs>
</svg>
