<svg width="21" height="20" viewBox="0 0 21 20" fill="none" xmlns="http://www.w3.org/2000/svg">
<path d="M15.6563 17.5C14.9455 17.5 14.2507 17.2893 13.6597 16.8944C13.0687 16.4995 12.6081 15.9382 12.3361 15.2816C12.0641 14.6249 11.9929 13.9023 12.1316 13.2052C12.2702 12.5081 12.6125 11.8677 13.1151 11.3651C13.6177 10.8625 14.258 10.5203 14.9551 10.3816C15.6523 10.2429 16.3748 10.3141 17.0315 10.5861C17.6882 10.8581 18.2495 11.3187 18.6443 11.9097C19.0392 12.5007 19.25 13.1955 19.25 13.9063C19.249 14.8591 18.87 15.7726 18.1963 16.4463C17.5225 17.12 16.6091 17.499 15.6563 17.5ZM15.6563 11.5625C15.1927 11.5625 14.7396 11.7 14.3541 11.9575C13.9687 12.2151 13.6683 12.5811 13.4909 13.0094C13.3135 13.4376 13.2671 13.9089 13.3575 14.3635C13.448 14.8182 13.6712 15.2358 13.999 15.5636C14.3267 15.8914 14.7444 16.1146 15.199 16.205C15.6537 16.2954 16.1249 16.249 16.5532 16.0716C16.9814 15.8942 17.3475 15.5938 17.605 15.2084C17.8625 14.823 18 14.3698 18 13.9063C17.9993 13.2849 17.7521 12.6892 17.3127 12.2498C16.8734 11.8104 16.2776 11.5633 15.6563 11.5625ZM5.34375 17.5C4.63297 17.5 3.93816 17.2893 3.34717 16.8944C2.75618 16.4995 2.29556 15.9382 2.02356 15.2816C1.75156 14.6249 1.68039 13.9023 1.81905 13.2052C1.95772 12.5081 2.29999 11.8677 2.80259 11.3651C3.30518 10.8625 3.94553 10.5203 4.64265 10.3816C5.33976 10.2429 6.06235 10.3141 6.71902 10.5861C7.37569 10.8581 7.93696 11.3187 8.33185 11.9097C8.72673 12.5007 8.9375 13.1955 8.9375 13.9063C8.93647 14.8591 8.55751 15.7726 7.88377 16.4463C7.21004 17.12 6.29656 17.499 5.34375 17.5ZM5.34375 11.5625C4.8802 11.5625 4.42706 11.7 4.04163 11.9575C3.65621 12.2151 3.3558 12.5811 3.17841 13.0094C3.00102 13.4376 2.9546 13.9089 3.04504 14.3635C3.13547 14.8182 3.35869 15.2358 3.68647 15.5636C4.01425 15.8914 4.43187 16.1146 4.88651 16.205C5.34115 16.2954 5.8124 16.249 6.24067 16.0716C6.66893 15.8942 7.03497 15.5938 7.29251 15.2084C7.55004 14.823 7.6875 14.3698 7.6875 13.9063C7.68678 13.2849 7.43962 12.6892 7.00023 12.2498C6.56085 11.8104 5.96513 11.5633 5.34375 11.5625ZM13 5.00004C13.1646 5.00061 13.3278 4.96854 13.4799 4.90568C13.6321 4.84282 13.7703 4.75042 13.8865 4.63381C14.0028 4.51721 14.0948 4.37872 14.1571 4.22636C14.2195 4.07399 14.2511 3.91077 14.25 3.74613C14.2518 3.58232 14.221 3.41978 14.1592 3.26803C14.0975 3.11628 14.0061 2.97836 13.8905 2.86234C13.7748 2.74631 13.6372 2.65451 13.4856 2.59231C13.3341 2.5301 13.1716 2.49873 13.0078 2.50004C12.8437 2.49953 12.681 2.53135 12.5292 2.59369C12.3773 2.65604 12.2392 2.74768 12.1228 2.86339C12.0064 2.9791 11.9138 3.11662 11.8506 3.26808C11.7873 3.41954 11.7544 3.58198 11.7539 3.74613C11.7534 3.91029 11.7852 4.07293 11.8476 4.22478C11.9099 4.37664 12.0016 4.51472 12.1173 4.63116C12.233 4.7476 12.3705 4.8401 12.5219 4.90339C12.6734 4.96669 12.8358 4.99953 13 5.00004Z" fill="white"/>
<path d="M14.8574 7.50023H13.148C13.12 7.50024 13.0925 7.4927 13.0684 7.4784C13.0442 7.4641 13.0244 7.44358 13.0109 7.41898L11.7711 5.14672C11.6837 4.97785 11.5578 4.83193 11.4036 4.72076C11.2494 4.6096 11.0711 4.53631 10.8833 4.50683C10.6955 4.47735 10.5034 4.49251 10.3225 4.55109C10.1416 4.60966 9.97708 4.71 9.84219 4.84398L7.11328 7.59398C6.88402 7.82798 6.75389 8.14141 6.75 8.46898C6.75 9.14867 7.24219 9.39085 7.47266 9.52757C8.58594 10.169 9.36992 10.6381 9.8 10.8987C9.82286 10.9126 9.84177 10.9321 9.8549 10.9555C9.86803 10.9788 9.87496 11.0051 9.875 11.0319V13.7319C9.875 14.0682 10.1336 14.3569 10.4699 14.3737C10.5544 14.3777 10.6388 14.3646 10.718 14.3351C10.7972 14.3057 10.8696 14.2604 10.9309 14.2021C10.9921 14.1439 11.0409 14.0738 11.0743 13.9961C11.1076 13.9184 11.1249 13.8348 11.125 13.7502V10.3909C11.1251 10.2916 11.1015 10.1938 11.0563 10.1055C11.011 10.0172 10.9454 9.94096 10.8648 9.88304L9.41953 8.84359C9.40139 8.83061 9.38624 8.81389 9.37509 8.79457C9.36395 8.77524 9.35708 8.75376 9.35493 8.73155C9.35278 8.70935 9.35542 8.68694 9.36265 8.66584C9.36989 8.64474 9.38156 8.62543 9.39687 8.60921L11.0375 6.85961C11.0543 6.84161 11.0752 6.82784 11.0983 6.81943C11.1215 6.81101 11.1463 6.8082 11.1707 6.81121C11.1952 6.81422 11.2186 6.82297 11.239 6.83674C11.2594 6.85051 11.2763 6.86892 11.2883 6.89046L12.1406 8.42875C12.1948 8.52626 12.2741 8.6075 12.3702 8.66403C12.4664 8.72056 12.576 8.75032 12.6875 8.75023H14.875C14.9597 8.75033 15.0435 8.73322 15.1213 8.69995C15.1992 8.66668 15.2695 8.61793 15.3279 8.55667C15.3864 8.49541 15.4318 8.42291 15.4613 8.34358C15.4909 8.26424 15.5041 8.17972 15.5 8.09515C15.4836 7.75882 15.1937 7.50023 14.8574 7.50023Z" fill="white"/>
</svg>
