<svg width="21" height="20" viewBox="0 0 21 20" fill="none" xmlns="http://www.w3.org/2000/svg">
<path d="M13.8333 5.83333C14.2754 5.83333 14.6993 5.65774 15.0118 5.34518C15.3244 5.03262 15.5 4.60869 15.5 4.16667C15.5 3.72464 15.3244 3.30072 15.0118 2.98816C14.6993 2.67559 14.2754 2.5 13.8333 2.5C13.3913 2.5 12.9674 2.67559 12.6548 2.98816C12.3423 3.30072 12.1667 3.72464 12.1667 4.16667C12.1667 4.60869 12.3423 5.03262 12.6548 5.34518C12.9674 5.65774 13.3913 5.83333 13.8333 5.83333ZM13.8333 5.83333V14.1667C13.8333 19.1667 5.5 19.1667 5.5 14.1667V10.8333L7.16667 12.5" stroke="white" stroke-width="1.5" stroke-linecap="round" stroke-linejoin="round"/>
</svg>
