<svg width="20" height="20" viewBox="0 0 20 20" fill="none" xmlns="http://www.w3.org/2000/svg">
<g clip-path="url(#clip0_776_714)">
<path d="M3.22309 3.63978C4.1255 2.73671 5.29924 2.15461 6.56429 1.98277C7.82934 1.81094 9.11583 2.05887 10.2264 2.68852C11.337 3.31817 12.2104 4.29477 12.7125 5.46853C13.2147 6.64229 13.318 7.94838 13.0064 9.18645L12.9489 9.39978L15.7823 13.0431C16.0208 13.3498 16.1759 13.7129 16.2324 14.0973C16.2889 14.4817 16.2449 14.8741 16.1048 15.2365C16.1881 15.2615 16.2898 15.2748 16.4148 15.2498L16.5131 15.224C16.7212 15.1597 16.9462 15.1795 17.1399 15.2791C17.3336 15.3787 17.4807 15.5502 17.5495 15.7568C17.6184 15.9635 17.6036 16.1888 17.5083 16.3847C17.413 16.5806 17.2448 16.7314 17.0398 16.8048C16.6864 16.927 16.3085 16.9613 15.9389 16.9048C15.5692 16.8483 15.2189 16.7028 14.9181 16.4806C14.5724 16.6335 14.1938 16.6969 13.8171 16.6649C13.4405 16.6328 13.078 16.5064 12.7631 16.2973L12.6264 16.1998L8.98309 13.3656C7.73967 13.7287 6.41077 13.6676 5.20592 13.1919C4.00107 12.7163 2.98881 11.8531 2.32876 10.7385C1.66871 9.62396 1.39842 8.3214 1.5605 7.03624C1.72258 5.75107 2.30782 4.5564 3.22393 3.64062L3.22309 3.63978ZM12.1473 11.0831C11.7464 11.6615 11.2448 12.1631 10.6664 12.564L13.6498 14.884C13.7621 14.9688 13.9014 15.0101 14.0418 15.0003C14.1822 14.9905 14.3144 14.9302 14.4139 14.8306C14.5134 14.731 14.5735 14.5988 14.5832 14.4584C14.5928 14.3179 14.5514 14.1787 14.4664 14.0665L12.1473 11.0831ZM10.7664 5.38228L10.5973 5.66228C9.92514 6.74504 9.13106 7.74714 8.23059 8.64895C7.329 9.54908 6.32718 10.3429 5.24476 11.0148L4.96476 11.184C5.76729 11.743 6.74087 12.0019 7.71507 11.9155C8.68928 11.829 9.60205 11.4027 10.2936 10.7111C10.9852 10.0196 11.4115 9.1068 11.4979 8.13259C11.5844 7.15839 11.3254 6.18482 10.7664 5.38228ZM9.51809 4.20728C8.72011 3.72121 7.78194 3.51734 6.85419 3.62841C5.92644 3.73947 5.06291 4.15903 4.40221 4.81973C3.74151 5.48043 3.32195 6.34396 3.21088 7.27171C3.09982 8.19946 3.30369 9.13763 3.78976 9.93562L4.05976 9.78312C5.1511 9.14165 6.15687 8.36464 7.05309 7.47062C7.86221 6.65948 8.57575 5.75833 9.17976 4.78478L9.27643 4.62645L9.44559 4.33728L9.51809 4.20728Z" fill="white"/>
</g>
<defs>
<clipPath id="clip0_776_714">
<rect width="20" height="20" fill="white"/>
</clipPath>
</defs>
</svg>
