<svg width="20" height="20" viewBox="0 0 20 20" fill="none" xmlns="http://www.w3.org/2000/svg">
<path d="M2.5 2.5H17.5V17.5H2.5V2.5ZM4.16667 4.16667V5.83333H5.83333V4.16667H4.16667ZM7.5 4.16667V9.16667H12.5V4.16667H7.5ZM14.1667 4.16667V5.83333H15.8333V4.16667H14.1667ZM15.8333 7.5H14.1667V9.16667H15.8333V7.5ZM15.8333 10.8333H14.1667V12.5H15.8333V10.8333ZM15.8333 14.1667H14.1667V15.8333H15.8333V14.1667ZM12.5 15.8333V10.8333H7.5V15.8333H12.5ZM5.83333 15.8333V14.1667H4.16667V15.8333H5.83333ZM4.16667 12.5H5.83333V10.8333H4.16667V12.5ZM4.16667 9.16667H5.83333V7.5H4.16667V9.16667Z" fill="white"/>
</svg>
