<svg width="20" height="20" viewBox="0 0 20 20" fill="none" xmlns="http://www.w3.org/2000/svg">
<g clip-path="url(#clip0_776_695)">
<path d="M1.6813 16.9208C2.62297 18.2658 6.7163 19.3224 8.64964 16.8041C10.7413 17.8041 14.1913 17.4941 16.9996 15.9274C17.3896 15.7099 17.7596 15.4349 17.9855 15.0491C18.4963 14.1783 18.5088 12.9699 17.5771 11.1874C16.023 7.30827 13.2288 3.9041 12.1005 2.53493C11.8688 2.32327 10.3905 2.02327 9.48964 1.73493C9.0913 1.61243 8.35047 1.52993 7.4638 2.69827C7.04297 3.25243 5.1338 4.61243 7.5563 5.52743C7.9313 5.62327 8.20797 5.7991 9.91964 5.48577C10.143 5.44743 10.6996 5.48577 11.0921 6.17493L11.9113 7.3466C11.9883 7.45514 12.037 7.58116 12.053 7.71327C12.1963 8.96327 12.1913 10.5266 12.888 11.3183C11.8121 10.5408 9.0013 9.6166 6.88297 12.2458M1.66797 10.7833C2.62148 9.93318 3.83718 9.43498 5.11304 9.37146C6.38889 9.30794 7.64807 9.68292 8.6813 10.4341" stroke="white" stroke-width="1.5" stroke-linecap="round" stroke-linejoin="round"/>
</g>
<defs>
<clipPath id="clip0_776_695">
<rect width="20" height="20" fill="white"/>
</clipPath>
</defs>
</svg>
