<svg width="20" height="20" viewBox="0 0 20 20" fill="none" xmlns="http://www.w3.org/2000/svg">
<path d="M14.9337 11.0997C14.7253 11.0663 13.9253 10.833 13.717 10.7413L11.992 16.1413L9.41699 15.1997L11.2503 10.3913L8.70866 7.49967L10.8337 6.28301C11.2087 7.22467 11.8087 8.01634 12.6003 8.66634C13.392 9.31634 14.3003 9.72467 15.317 9.88301L16.2503 7.02467L15.0503 6.63301L14.617 7.96634C14.067 7.73301 13.5837 7.38301 13.167 6.93301C12.7503 6.47467 12.4503 5.94134 12.267 5.34134L11.992 4.44134C11.892 4.10801 11.7003 3.84134 11.4253 3.64134C11.1503 3.44967 10.8337 3.33301 10.5253 3.30801C10.2003 3.28301 9.88366 3.33301 9.58366 3.50801L6.66699 5.19134C6.35866 5.36634 6.13366 5.61634 5.99199 5.93301C5.83366 6.24967 5.80033 6.56634 5.83366 6.90801C5.86699 7.24967 6.05033 7.54967 6.28366 7.80801L9.25866 10.8997L7.85033 14.6163L2.05866 12.5413L1.66699 13.7163L13.367 17.983C14.017 18.2163 14.7087 18.333 15.442 18.333C15.9587 18.333 16.467 18.2663 16.967 18.1413C17.4587 18.008 17.917 17.8247 18.3337 17.5913L17.392 16.6663C16.767 16.9413 16.117 17.083 15.442 17.083C14.892 17.083 14.342 16.9913 13.792 16.808L13.167 16.5747L14.9337 11.0997ZM15.8337 2.49967C15.8337 3.42467 15.092 4.16634 14.167 4.16634C13.242 4.16634 12.5003 3.42467 12.5003 2.49967C12.5003 1.57467 13.2503 0.833008 14.167 0.833008C15.0837 0.833008 15.8337 1.58301 15.8337 2.49967Z" fill="white"/>
</svg>
