<svg width="20" height="20" viewBox="0 0 20 20" fill="none" xmlns="http://www.w3.org/2000/svg">
<g clip-path="url(#clip0_776_708)">
<path d="M18.02 2.34563C15.8797 0.205625 11.9647 0.649687 9.27688 3.33844C7.70156 4.91344 6.90312 6.9075 6.93687 8.72125C6.81 10.6638 6.46187 12.5384 5.54281 13.6253L5.225 13.3072L4.73469 13.7972L4.87063 13.9331L1.57406 17.2297L1.43813 17.0938L0.948438 17.5834L2.73906 19.375L3.22937 18.8853L3.09344 18.7497L6.39031 15.4531L6.52625 15.5887L7.01563 15.0991L6.74156 14.8234C7.82781 13.905 9.7 13.5572 11.6406 13.4294C13.455 13.4647 15.4509 12.6666 17.0275 11.09C19.7172 8.40125 20.1609 4.48625 18.02 2.34563ZM18.3894 5.83656L17.94 5.38781L18.2887 5.03969C18.3453 5.29844 18.3784 5.56469 18.3894 5.83656ZM18.1434 4.53344L17.6147 5.0625L16.6228 4.07031L17.4097 3.28312C17.732 3.64915 17.981 4.07359 18.1434 4.53344ZM9.01563 9.03969L10.26 7.79469L11.2528 8.78719L10.0078 10.0316L9.01563 9.03969ZM9.68281 10.3584L8.89437 11.1459C8.57175 10.7798 8.32263 10.355 8.16063 9.89469L8.68969 9.36625L9.68281 10.3584ZM13.7334 4.32219L14.9772 3.07781L15.9694 4.07063L14.7247 5.31531L13.7334 4.32219ZM15.7169 6.95906L14.4716 8.20656L13.4781 7.21469L14.7247 5.9675L15.7169 6.95906ZM14.3988 5.64125L13.1522 6.88781L12.16 5.89562L13.4066 4.64875L14.3988 5.64125ZM12.8259 7.21469L11.5791 8.46125L10.5862 7.46844L11.8334 6.22187L12.8259 7.21469ZM11.8334 5.56938L10.8438 4.57938L12.0903 3.3325L13.0794 4.32219L11.8334 5.56938ZM11.5075 5.89594L10.26 7.14219L9.27063 6.15219L10.5166 4.905L11.5075 5.89594ZM11.5791 9.11406L12.5709 10.1056L11.3266 11.3506L10.335 10.3578L11.5791 9.11406ZM11.9062 8.78719L13.1522 7.54062L14.1444 8.53281L12.8969 9.77969L11.9062 8.78719ZM14.4716 8.85875L15.4597 9.84906L14.2128 11.0956L13.2225 10.1056L14.4716 8.85875ZM14.7969 8.5325L16.0434 7.28594L17.0337 8.27563L15.7872 9.5225L14.7969 8.5325ZM15.0513 5.64156L16.2962 4.39656L17.2881 5.38813L16.0447 6.63312L15.0513 5.64156ZM17.0837 2.95687L16.2962 3.74438L15.3031 2.75156L15.8316 2.22312C16.2923 2.38485 16.7175 2.63399 17.0837 2.95687ZM15.3256 2.07687L14.9775 2.425L14.5291 1.97656C14.8009 1.98781 15.0672 2.02062 15.3256 2.07687ZM13.8909 1.99094L14.6509 2.75125L13.4069 3.99594L12.4162 3.00625L13.3603 2.06219C13.5381 2.02937 13.7153 2.00594 13.8909 1.99094ZM12.4669 2.30312L12.0906 2.68L11.9303 2.51969C12.1058 2.43944 12.2848 2.36718 12.4669 2.30312ZM11.4962 2.73781L11.7638 3.00563L10.5166 4.25281L10.0538 3.78875C10.4884 3.37909 10.9731 3.02598 11.4962 2.73781ZM9.72719 4.11563L10.1909 4.57938L8.94406 5.82594L8.67625 5.55781C8.9645 5.03479 9.3176 4.55023 9.72719 4.11563ZM8.45781 5.99219L8.61781 6.1525L8.24094 6.52937C8.30406 6.34875 8.37594 6.17 8.45781 5.99219ZM8 7.42188L8.94406 6.47812L9.93406 7.46813L8.68969 8.71219L7.92844 7.95125C7.94375 7.77625 7.96719 7.59938 8 7.42188ZM8.36281 9.03938L8.01469 9.3875C7.95797 9.12544 7.92451 8.85888 7.91469 8.59094L8.36281 9.03938ZM7.02719 13.3397C6.68531 12.9978 7.13031 11.6728 7.43844 10.885C7.65219 11.3222 7.92875 11.7284 8.28281 12.0825C8.63719 12.4369 9.04375 12.7137 9.48187 12.9278C8.69406 13.2356 7.36844 13.6809 7.02719 13.3397ZM9.22063 11.4725L10.0081 10.6847L11.0003 11.6772L10.4706 12.2056C10.0109 12.0435 9.58653 11.7946 9.22063 11.4725ZM10.9778 12.3512L11.3262 12.0028L11.775 12.4519C11.5068 12.4418 11.2401 12.4082 10.9778 12.3512ZM12.4134 12.4375L11.6522 11.6762L12.8966 10.4319L13.8872 11.4216L12.9428 12.3666C12.7676 12.3988 12.5909 12.4225 12.4134 12.4375ZM13.8359 12.1256L14.2125 11.7491L14.3731 11.9091C14.1953 11.99 14.0163 12.0622 13.8359 12.1256ZM14.8084 11.6897L14.5406 11.4216L15.7872 10.1753L16.2506 10.6387C15.8162 11.0485 15.3316 11.4016 14.8084 11.6897ZM16.5769 10.3125L16.1131 9.84906L17.3597 8.60219L17.6281 8.87C17.3397 9.39308 16.9865 9.87773 16.5769 10.3125ZM17.8463 8.43594L17.6859 8.27594L18.0625 7.89937C17.9987 8.08145 17.9265 8.2605 17.8463 8.43594ZM18.3037 7.00531L17.3597 7.94969L16.3703 6.95906L17.6147 5.71469L18.3753 6.47594C18.3601 6.65346 18.3362 6.83013 18.3037 7.00531ZM4.0625 7.5C4.98062 7.5 5.84406 7.1425 6.49344 6.49344C7.14281 5.84406 7.5 4.98062 7.5 4.0625C7.5 3.14438 7.14187 2.28094 6.4925 1.63188C5.84344 0.982813 4.98031 0.625 4.06219 0.625C3.14406 0.625 2.28125 0.9825 1.63219 1.63188C0.982812 2.28094 0.625 3.14438 0.625 4.0625C0.625 4.98062 0.9825 5.84437 1.63188 6.49344C1.95037 6.81356 2.32918 7.06735 2.74639 7.24012C3.1636 7.4129 3.61093 7.50123 4.0625 7.5ZM6.08781 2.03719C6.60535 2.55302 6.90447 3.24828 6.92312 3.97875C6.19681 3.94779 5.50864 3.64508 4.995 3.13062C4.48024 2.61707 4.17748 1.92867 4.14688 1.20219C4.87708 1.22092 5.57208 1.51991 6.08781 2.03719ZM2.03719 2.03688C2.50828 1.56343 3.13106 1.27101 3.79625 1.21094C3.82884 2.02746 4.16783 2.80174 4.74568 3.37953C5.32354 3.95733 6.09785 4.29624 6.91437 4.32875C6.85452 4.99415 6.56195 5.61714 6.08813 6.08813C5.6169 6.56157 4.99402 6.85398 4.32875 6.91406C4.29624 6.09767 3.95726 5.32352 3.37938 4.74594C2.80186 4.16795 2.02767 3.82895 1.21125 3.79656C1.27079 3.13105 1.56328 2.5079 2.03719 2.03688ZM3.13031 4.99438C3.64471 5.50818 3.9474 6.19642 3.97844 6.92281C3.24807 6.90426 2.55285 6.60538 2.03688 6.08813C1.51943 5.57228 1.22051 4.87698 1.20219 4.14656C1.92843 4.17756 2.61656 4.48013 3.13031 4.99438Z" fill="white"/>
</g>
<defs>
<clipPath id="clip0_776_708">
<rect width="20" height="20" fill="white"/>
</clipPath>
</defs>
</svg>
