<svg width="21" height="20" viewBox="0 0 21 20" fill="none" xmlns="http://www.w3.org/2000/svg">
<path d="M16.5418 8.09922L14.841 2.32344C14.8029 2.19403 14.724 2.08043 14.616 1.99961C14.508 1.91878 14.3767 1.87507 14.2418 1.875H6.759C6.6241 1.87507 6.49285 1.91878 6.38485 1.99961C6.27684 2.08043 6.19789 2.19403 6.15978 2.32344L4.459 8.09922C4.19216 8.98449 4.17819 9.92675 4.41868 10.8195C4.65917 11.7123 5.14453 12.5201 5.81994 13.1516C6.93099 14.1934 8.35848 14.8339 9.87541 14.9711V18.125H7.37541C7.20965 18.125 7.05068 18.1908 6.93347 18.3081C6.81626 18.4253 6.75041 18.5842 6.75041 18.75C6.75041 18.9158 6.81626 19.0747 6.93347 19.1919C7.05068 19.3092 7.20965 19.375 7.37541 19.375H13.6254C13.7912 19.375 13.9501 19.3092 14.0673 19.1919C14.1846 19.0747 14.2504 18.9158 14.2504 18.75C14.2504 18.5842 14.1846 18.4253 14.0673 18.3081C13.9501 18.1908 13.7912 18.125 13.6254 18.125H11.1254V14.9711C12.6423 14.8339 14.0698 14.1934 15.1809 13.1516C15.8563 12.5201 16.3416 11.7123 16.5821 10.8195C16.8226 9.92675 16.8087 8.98449 16.5418 8.09922ZM7.22619 3.125H13.7746L15.3442 8.45234C15.3512 8.47578 15.3574 8.49922 15.3637 8.52266C13.6903 9.12266 11.8059 8.39766 10.7832 7.87969C8.81525 6.88359 7.25275 6.75703 6.10041 6.94766L7.22619 3.125ZM14.3285 12.2383C13.2907 13.2101 11.9222 13.7508 10.5004 13.7508C9.07865 13.7508 7.7101 13.2101 6.67228 12.2383C6.16688 11.7647 5.80395 11.1592 5.62448 10.4902C5.44502 9.82118 5.45616 9.11534 5.65666 8.45234L5.69181 8.33359C6.62931 8.01641 8.11916 7.93203 10.2176 8.99531C11.0887 9.43672 12.4957 9.99922 14.0012 9.99922C14.5044 10.0017 15.0054 9.93333 15.4895 9.79609C15.4257 10.7278 15.0108 11.6006 14.3285 12.2383Z" fill="white"/>
</svg>
