<svg width="25" height="25" viewBox="0 0 25 25" fill="none" xmlns="http://www.w3.org/2000/svg">
<path d="M9.6767 6.9896C9.58013 7.08596 9.50352 7.20043 9.45125 7.32645C9.39898 7.45246 9.37207 7.58755 9.37207 7.72397C9.37207 7.8604 9.39898 7.99548 9.45125 8.1215C9.50352 8.24751 9.58013 8.36198 9.6767 8.45835L13.7184 12.5L9.6767 16.5417C9.58026 16.6381 9.50376 16.7526 9.45157 16.8786C9.39938 17.0046 9.37251 17.1397 9.37251 17.2761C9.37251 17.4124 9.39938 17.5475 9.45157 17.6735C9.50376 17.7995 9.58026 17.914 9.6767 18.0104C9.77314 18.1069 9.88763 18.1834 10.0136 18.2356C10.1396 18.2878 10.2747 18.3146 10.4111 18.3146C10.5475 18.3146 10.6825 18.2878 10.8085 18.2356C10.9345 18.1834 11.049 18.1069 11.1454 18.0104L15.9267 13.2292C16.0233 13.1328 16.0999 13.0183 16.1522 12.8923C16.2044 12.7663 16.2313 12.6312 16.2313 12.4948C16.2313 12.3584 16.2044 12.2233 16.1522 12.0973C16.0999 11.9713 16.0233 11.8568 15.9267 11.7604L11.1454 6.97918C10.7496 6.58335 10.0829 6.58335 9.6767 6.9896Z" fill="#E94057"/>
</svg>
