<svg width="24" height="24" viewBox="0 0 24 24" fill="none" xmlns="http://www.w3.org/2000/svg">
<path d="M17.2629 2.17717C17.591 1.84924 18.036 1.66504 18.4999 1.66504C18.9638 1.66504 19.4087 1.84924 19.7369 2.17717L22.3229 4.76317C22.6508 5.09132 22.835 5.53625 22.835 6.00017C22.835 6.46408 22.6508 6.90901 22.3229 7.23717L19.5299 10.0302L19.5179 10.0432L8.68988 20.3782C8.49207 20.5673 8.25266 20.7074 7.99088 20.7872L2.46788 22.4672C2.33801 22.5063 2.19995 22.5095 2.0684 22.4764C1.93686 22.4433 1.81676 22.3751 1.72088 22.2792C1.62492 22.1833 1.55676 22.0632 1.52366 21.9316C1.49055 21.8001 1.49374 21.662 1.53288 21.5322L3.20588 16.0322C3.29363 15.7443 3.45413 15.4839 3.67188 15.2762L14.4759 4.96317L17.2629 2.17717ZM4.70788 16.3612C4.67696 16.3911 4.65394 16.4282 4.64088 16.4692L3.37688 20.6232L7.55388 19.3522C7.59139 19.3406 7.62564 19.3204 7.65388 19.2932L17.9269 9.48717L14.9869 6.54817L4.70788 16.3612ZM18.9999 8.44017L21.2629 6.17817C21.2862 6.15494 21.3046 6.12736 21.3172 6.09698C21.3298 6.06661 21.3363 6.03405 21.3363 6.00117C21.3363 5.96828 21.3298 5.93572 21.3172 5.90535C21.3046 5.87498 21.2862 5.84739 21.2629 5.82417L18.6769 3.23817C18.6537 3.21488 18.6261 3.19641 18.5957 3.18381C18.5653 3.17121 18.5328 3.16472 18.4999 3.16472C18.467 3.16472 18.4344 3.17121 18.4041 3.18381C18.3737 3.19641 18.3461 3.21488 18.3229 3.23817L16.0609 5.50017L18.9999 8.44017Z" fill="black"/>
</svg>
